<svg width="420" height="438" viewBox="0 0 420 438" fill="none" xmlns="http://www.w3.org/2000/svg">
<path d="M89.8947 415.5C82.5099 405.807 43.228 240.167 26.8947 155.5H393.895C393.895 155.5 334.895 387.5 318.895 415.5C302.895 443.5 113.895 447 89.8947 415.5Z" fill="#FFC7DB"/>
<path d="M32.8947 187L25.8947 151L395.895 145L385.395 194C270.995 237.2 102.395 222 32.8947 187Z" fill="#FF7381"/>
<path d="M4.89448 146C-0.70552 139.6 -0.93868 75.6667 1.39465 43C26.5613 56 109.694 79 226.894 79C344.094 79 404.061 53 419.394 40C417.894 70 414.694 133.2 413.894 146C412.894 162 331.394 184 226.894 189C122.394 194 11.8945 154 4.89448 146Z" fill="#FFC7DB"/>
<path d="M201.895 0C56.6947 0 12.0613 20 7.89466 30C-11.772 46.6667 -0.505341 80 201.895 80C404.295 80 429.561 46.6667 416.895 30C405.728 20 347.095 0 201.895 0Z" fill="#FFC7DB"/>
<mask id="mask0" mask-type="alpha" maskUnits="userSpaceOnUse" x="42" y="25" width="349" height="63">
<path d="M230.316 25.7552C95.9724 20.4636 49.3919 44.2756 42.8947 56.8431C154.848 97.5881 291.79 99.1756 390.749 56.8431C393.247 48.6853 364.659 31.0467 230.316 25.7552Z" fill="#FF7381"/>
</mask>
<g mask="url(#mask0)">
<path d="M285.451 274.413C283.069 272.595 279.739 273.036 278.013 275.398C276.287 277.759 276.818 281.148 279.2 282.965C281.582 284.783 284.913 284.342 286.639 281.981C288.365 279.619 287.833 276.231 285.451 274.413Z" fill="#FF7381"/>
<path d="M297.953 257.309C295.571 255.491 292.241 255.932 290.515 258.293C288.788 260.655 289.32 264.043 291.702 265.861C294.084 267.679 297.415 267.238 299.141 264.876C300.867 262.514 300.335 259.126 297.953 257.309Z" fill="#FF7381"/>
<path d="M310.455 240.204C308.073 238.386 304.742 238.827 303.016 241.189C301.29 243.55 301.822 246.938 304.204 248.756C306.586 250.574 309.916 250.133 311.642 247.772C313.368 245.41 312.837 242.022 310.455 240.204Z" fill="#FF7381"/>
<path d="M322.956 223.099C320.574 221.282 317.244 221.722 315.518 224.084C313.792 226.446 314.324 229.834 316.706 231.652C319.088 233.469 322.418 233.029 324.144 230.667C325.87 228.305 325.339 224.917 322.956 223.099Z" fill="#FF7381"/>
<path d="M335.458 205.995C333.076 204.177 329.746 204.618 328.02 206.98C326.294 209.341 326.825 212.729 329.207 214.547C331.589 216.365 334.92 215.924 336.646 213.562C338.372 211.201 337.84 207.813 335.458 205.995Z" fill="#FF7381"/>
<path d="M347.96 188.89C345.578 187.072 342.248 187.513 340.521 189.875C338.795 192.237 339.327 195.625 341.709 197.443C344.091 199.26 347.421 198.819 349.148 196.458C350.874 194.096 350.342 190.708 347.96 188.89Z" fill="#FF7381"/>
<path d="M360.462 171.786C358.08 169.968 354.749 170.409 353.023 172.77C351.297 175.132 351.829 178.52 354.211 180.338C356.593 182.156 359.923 181.715 361.649 179.353C363.375 176.992 362.844 173.603 360.462 171.786Z" fill="#FF7381"/>
<path d="M372.963 154.681C370.581 152.863 367.251 153.304 365.525 155.666C363.799 158.027 364.331 161.416 366.713 163.233C369.095 165.051 372.425 164.61 374.151 162.249C375.877 159.887 375.345 156.499 372.963 154.681Z" fill="#FF7381"/>
<path d="M385.465 137.577C383.083 135.759 379.753 136.2 378.027 138.561C376.301 140.923 376.832 144.311 379.214 146.129C381.596 147.947 384.927 147.506 386.653 145.144C388.379 142.782 387.847 139.394 385.465 137.577Z" fill="#FF7381"/>
<path d="M397.967 120.472C395.585 118.654 392.255 119.095 390.528 121.457C388.802 123.818 389.334 127.206 391.716 129.024C394.098 130.842 397.428 130.401 399.154 128.04C400.881 125.678 400.349 122.29 397.967 120.472Z" fill="#FF7381"/>
<path d="M268.199 261.247C265.817 259.43 262.487 259.871 260.761 262.232C259.035 264.594 259.566 267.982 261.948 269.8C264.33 271.618 267.661 271.177 269.387 268.815C271.113 266.453 270.581 263.065 268.199 261.247Z" fill="#FF7381"/>
<path d="M280.701 244.143C278.319 242.325 274.989 242.766 273.262 245.128C271.536 247.489 272.068 250.877 274.45 252.695C276.832 254.513 280.162 254.072 281.889 251.71C283.615 249.349 283.083 245.961 280.701 244.143Z" fill="#FF7381"/>
<path d="M293.203 227.038C290.821 225.22 287.49 225.661 285.764 228.023C284.038 230.385 284.57 233.773 286.952 235.591C289.334 237.408 292.664 236.968 294.39 234.606C296.116 232.244 295.585 228.856 293.203 227.038Z" fill="#FF7381"/>
<path d="M305.704 209.934C303.322 208.116 299.992 208.557 298.266 210.918C296.54 213.28 297.071 216.668 299.454 218.486C301.836 220.304 305.166 219.863 306.892 217.501C308.618 215.14 308.086 211.752 305.704 209.934Z" fill="#FF7381"/>
<path d="M318.206 192.829C315.824 191.011 312.494 191.452 310.768 193.814C309.042 196.176 309.573 199.564 311.955 201.381C314.337 203.199 317.668 202.758 319.394 200.397C321.12 198.035 320.588 194.647 318.206 192.829Z" fill="#FF7381"/>
<path d="M330.708 175.725C328.326 173.907 324.995 174.348 323.269 176.709C321.543 179.071 322.075 182.459 324.457 184.277C326.839 186.095 330.169 185.654 331.895 183.292C333.622 180.93 333.09 177.542 330.708 175.725Z" fill="#FF7381"/>
<path d="M343.21 158.62C340.828 156.802 337.497 157.243 335.771 159.605C334.045 161.966 334.577 165.354 336.959 167.172C339.341 168.99 342.671 168.549 344.397 166.188C346.123 163.826 345.592 160.438 343.21 158.62Z" fill="#FF7381"/>
<path d="M355.711 141.515C353.329 139.698 349.999 140.138 348.273 142.5C346.547 144.862 347.078 148.25 349.46 150.068C351.842 151.886 355.173 151.445 356.899 149.083C358.625 146.721 358.093 143.333 355.711 141.515Z" fill="#FF7381"/>
<path d="M368.213 124.411C365.831 122.593 362.501 123.034 360.775 125.396C359.048 127.757 359.58 131.145 361.962 132.963C364.344 134.781 367.674 134.34 369.401 131.978C371.127 129.617 370.595 126.229 368.213 124.411Z" fill="#FF7381"/>
<path d="M380.715 107.306C378.333 105.488 375.002 105.929 373.276 108.291C371.55 110.653 372.082 114.041 374.464 115.859C376.846 117.676 380.176 117.235 381.902 114.874C383.628 112.512 383.097 109.124 380.715 107.306Z" fill="#FF7381"/>
<path d="M250.947 248.082C248.565 246.264 245.235 246.705 243.509 249.066C241.783 251.428 242.314 254.816 244.696 256.634C247.078 258.452 250.409 258.011 252.135 255.649C253.861 253.288 253.329 249.9 250.947 248.082Z" fill="#FF7381"/>
<path d="M263.449 230.977C261.067 229.159 257.736 229.6 256.01 231.962C254.284 234.324 254.816 237.712 257.198 239.529C259.58 241.347 262.91 240.906 264.636 238.545C266.363 236.183 265.831 232.795 263.449 230.977Z" fill="#FF7381"/>
<path d="M275.951 213.873C273.569 212.055 270.238 212.496 268.512 214.857C266.786 217.219 267.318 220.607 269.7 222.425C272.082 224.243 275.412 223.802 277.138 221.44C278.864 219.079 278.333 215.69 275.951 213.873Z" fill="#FF7381"/>
<path d="M288.452 196.768C286.07 194.95 282.74 195.391 281.014 197.753C279.288 200.114 279.819 203.503 282.201 205.32C284.583 207.138 287.914 206.697 289.64 204.336C291.366 201.974 290.834 198.586 288.452 196.768Z" fill="#FF7381"/>
<path d="M300.954 179.663C298.572 177.846 295.242 178.287 293.516 180.648C291.789 183.01 292.321 186.398 294.703 188.216C297.085 190.034 300.415 189.593 302.142 187.231C303.868 184.869 303.336 181.481 300.954 179.663Z" fill="#FF7381"/>
<path d="M313.456 162.559C311.074 160.741 307.743 161.182 306.017 163.544C304.291 165.905 304.823 169.293 307.205 171.111C309.587 172.929 312.917 172.488 314.643 170.126C316.369 167.765 315.838 164.377 313.456 162.559Z" fill="#FF7381"/>
<path d="M325.957 145.454C323.575 143.637 320.245 144.077 318.519 146.439C316.793 148.801 317.325 152.189 319.707 154.007C322.089 155.824 325.419 155.384 327.145 153.022C328.871 150.66 328.339 147.272 325.957 145.454Z" fill="#FF7381"/>
<path d="M338.459 128.35C336.077 126.532 332.747 126.973 331.021 129.334C329.295 131.696 329.826 135.084 332.208 136.902C334.59 138.72 337.921 138.279 339.647 135.917C341.373 133.556 340.841 130.168 338.459 128.35Z" fill="#FF7381"/>
<path d="M350.961 111.245C348.579 109.427 345.249 109.868 343.522 112.23C341.796 114.592 342.328 117.98 344.71 119.797C347.092 121.615 350.422 121.174 352.148 118.813C353.875 116.451 353.343 113.063 350.961 111.245Z" fill="#FF7381"/>
<path d="M363.463 94.1406C361.081 92.3228 357.75 92.7637 356.024 95.1253C354.298 97.487 354.83 100.875 357.212 102.693C359.594 104.511 362.924 104.07 364.65 101.708C366.376 99.3465 365.845 95.9584 363.463 94.1406Z" fill="#FF7381"/>
<path d="M233.695 234.916C231.313 233.098 227.983 233.539 226.257 235.901C224.53 238.262 225.062 241.651 227.444 243.468C229.826 245.286 233.156 244.845 234.883 242.484C236.609 240.122 236.077 236.734 233.695 234.916Z" fill="#FF7381"/>
<path d="M246.197 217.811C243.815 215.994 240.484 216.435 238.758 218.796C237.032 221.158 237.564 224.546 239.946 226.364C242.328 228.182 245.658 227.741 247.384 225.379C249.11 223.017 248.579 219.629 246.197 217.811Z" fill="#FF7381"/>
<path d="M258.698 200.707C256.316 198.889 252.986 199.33 251.26 201.692C249.534 204.053 250.066 207.441 252.448 209.259C254.83 211.077 258.16 210.636 259.886 208.274C261.612 205.913 261.08 202.525 258.698 200.707Z" fill="#FF7381"/>
<path d="M271.2 183.602C268.818 181.785 265.488 182.225 263.762 184.587C262.036 186.949 262.567 190.337 264.949 192.155C267.331 193.972 270.662 193.532 272.388 191.17C274.114 188.808 273.582 185.42 271.2 183.602Z" fill="#FF7381"/>
<path d="M283.702 166.498C281.32 164.68 277.99 165.121 276.263 167.482C274.537 169.844 275.069 173.232 277.451 175.05C279.833 176.868 283.163 176.427 284.889 174.065C286.616 171.704 286.084 168.316 283.702 166.498Z" fill="#FF7381"/>
<path d="M296.204 149.393C293.822 147.575 290.491 148.016 288.765 150.378C287.039 152.74 287.571 156.128 289.953 157.945C292.335 159.763 295.665 159.322 297.391 156.961C299.117 154.599 298.586 151.211 296.204 149.393Z" fill="#FF7381"/>
<path d="M308.705 132.289C306.323 130.471 302.993 130.912 301.267 133.273C299.541 135.635 300.072 139.023 302.454 140.841C304.836 142.659 308.167 142.218 309.893 139.856C311.619 137.495 311.087 134.106 308.705 132.289Z" fill="#FF7381"/>
<path d="M321.207 115.184C318.825 113.366 315.495 113.807 313.769 116.169C312.042 118.53 312.574 121.919 314.956 123.736C317.338 125.554 320.669 125.113 322.395 122.752C324.121 120.39 323.589 117.002 321.207 115.184Z" fill="#FF7381"/>
<path d="M333.709 98.0795C331.327 96.2617 327.996 96.7025 326.27 99.0642C324.544 101.426 325.076 104.814 327.458 106.632C329.84 108.45 333.17 108.009 334.896 105.647C336.623 103.285 336.091 99.8973 333.709 98.0795Z" fill="#FF7381"/>
<path d="M346.21 80.9749C343.828 79.1571 340.498 79.598 338.772 81.9596C337.046 84.3213 337.578 87.7094 339.96 89.5272C342.342 91.345 345.672 90.9041 347.398 88.5425C349.124 86.1808 348.593 82.7927 346.21 80.9749Z" fill="#FF7381"/>
<path d="M216.443 221.75C214.061 219.933 210.731 220.373 209.004 222.735C207.278 225.097 207.81 228.485 210.192 230.303C212.574 232.12 215.904 231.68 217.63 229.318C219.357 226.956 218.825 223.568 216.443 221.75Z" fill="#FF7381"/>
<path d="M228.945 204.646C226.563 202.828 223.232 203.269 221.506 205.631C219.78 207.992 220.312 211.38 222.694 213.198C225.076 215.016 228.406 214.575 230.132 212.213C231.858 209.852 231.327 206.464 228.945 204.646Z" fill="#FF7381"/>
<path d="M241.446 187.541C239.064 185.723 235.734 186.164 234.008 188.526C232.282 190.888 232.813 194.276 235.195 196.094C237.577 197.911 240.908 197.47 242.634 195.109C244.36 192.747 243.828 189.359 241.446 187.541Z" fill="#FF7381"/>
<path d="M253.948 170.437C251.566 168.619 248.236 169.06 246.51 171.421C244.783 173.783 245.315 177.171 247.697 178.989C250.079 180.807 253.41 180.366 255.136 178.004C256.862 175.643 256.33 172.254 253.948 170.437Z" fill="#FF7381"/>
<path d="M266.45 153.332C264.068 151.514 260.737 151.955 259.011 154.317C257.285 156.678 257.817 160.067 260.199 161.884C262.581 163.702 265.911 163.261 267.637 160.9C269.363 158.538 268.832 155.15 266.45 153.332Z" fill="#FF7381"/>
<path d="M278.951 136.227C276.569 134.41 273.239 134.851 271.513 137.212C269.787 139.574 270.319 142.962 272.701 144.78C275.083 146.598 278.413 146.157 280.139 143.795C281.865 141.433 281.334 138.045 278.951 136.227Z" fill="#FF7381"/>
<path d="M291.453 119.123C289.071 117.305 285.741 117.746 284.015 120.108C282.289 122.469 282.82 125.857 285.202 127.675C287.584 129.493 290.915 129.052 292.641 126.69C294.367 124.329 293.835 120.941 291.453 119.123Z" fill="#FF7381"/>
<path d="M303.955 102.018C301.573 100.201 298.243 100.641 296.516 103.003C294.79 105.365 295.322 108.753 297.704 110.571C300.086 112.388 303.416 111.948 305.143 109.586C306.869 107.224 306.337 103.836 303.955 102.018Z" fill="#FF7381"/>
<path d="M316.457 84.9138C314.075 83.096 310.744 83.5368 309.018 85.8985C307.292 88.2601 307.824 91.6483 310.206 93.4661C312.588 95.2839 315.918 94.843 317.644 92.4813C319.37 90.1197 318.839 86.7316 316.457 84.9138Z" fill="#FF7381"/>
<path d="M328.958 67.8092C326.576 65.9914 323.246 66.4323 321.52 68.7939C319.794 71.1556 320.326 74.5437 322.708 76.3615C325.09 78.1793 328.42 77.7384 330.146 75.3768C331.872 73.0151 331.34 69.627 328.958 67.8092Z" fill="#FF7381"/>
<path d="M199.191 208.585C196.809 206.767 193.478 207.208 191.752 209.569C190.026 211.931 190.558 215.319 192.94 217.137C195.322 218.955 198.652 218.514 200.378 216.152C202.104 213.791 201.573 210.402 199.191 208.585Z" fill="#FF7381"/>
<path d="M211.692 191.48C209.31 189.662 205.98 190.103 204.254 192.465C202.528 194.826 203.06 198.215 205.442 200.032C207.824 201.85 211.154 201.409 212.88 199.048C214.606 196.686 214.074 193.298 211.692 191.48Z" fill="#FF7381"/>
<path d="M224.194 174.376C221.812 172.558 218.482 172.999 216.756 175.36C215.03 177.722 215.561 181.11 217.943 182.928C220.325 184.746 223.656 184.305 225.382 181.943C227.108 179.581 226.576 176.193 224.194 174.376Z" fill="#FF7381"/>
<path d="M236.696 157.271C234.314 155.453 230.984 155.894 229.257 158.256C227.531 160.617 228.063 164.005 230.445 165.823C232.827 167.641 236.157 167.2 237.884 164.839C239.61 162.477 239.078 159.089 236.696 157.271Z" fill="#FF7381"/>
<path d="M249.198 140.166C246.816 138.349 243.485 138.789 241.759 141.151C240.033 143.513 240.565 146.901 242.947 148.719C245.329 150.536 248.659 150.096 250.385 147.734C252.111 145.372 251.58 141.984 249.198 140.166Z" fill="#FF7381"/>
<path d="M261.699 123.062C259.317 121.244 255.987 121.685 254.261 124.047C252.535 126.408 253.066 129.796 255.449 131.614C257.831 133.432 261.161 132.991 262.887 130.629C264.613 128.268 264.081 124.88 261.699 123.062Z" fill="#FF7381"/>
<path d="M274.201 105.957C271.819 104.139 268.489 104.58 266.763 106.942C265.036 109.304 265.568 112.692 267.95 114.51C270.332 116.327 273.663 115.886 275.389 113.525C277.115 111.163 276.583 107.775 274.201 105.957Z" fill="#FF7381"/>
<path d="M286.703 88.8527C284.321 87.0349 280.99 87.4757 279.264 89.8374C277.538 92.199 278.07 95.5872 280.452 97.405C282.834 99.2228 286.164 98.7819 287.89 96.4202C289.617 94.0586 289.085 90.6705 286.703 88.8527Z" fill="#FF7381"/>
<path d="M299.205 71.7481C296.823 69.9303 293.492 70.3711 291.766 72.7328C290.04 75.0945 290.572 78.4826 292.954 80.3004C295.336 82.1182 298.666 81.6773 300.392 79.3156C302.118 76.954 301.587 73.5659 299.205 71.7481Z" fill="#FF7381"/>
<path d="M311.706 54.6435C309.324 52.8257 305.994 53.2666 304.268 55.6282C302.542 57.9899 303.073 61.378 305.455 63.1958C307.837 65.0136 311.168 64.5727 312.894 62.2111C314.62 59.8494 314.088 56.4613 311.706 54.6435Z" fill="#FF7381"/>
<path d="M181.939 195.419C179.557 193.601 176.226 194.042 174.5 196.404C172.774 198.765 173.306 202.153 175.688 203.971C178.07 205.789 181.4 205.348 183.126 202.987C184.852 200.625 184.321 197.237 181.939 195.419Z" fill="#FF7381"/>
<path d="M194.44 178.314C192.058 176.497 188.728 176.937 187.002 179.299C185.276 181.661 185.807 185.049 188.189 186.867C190.571 188.685 193.902 188.244 195.628 185.882C197.354 183.52 196.822 180.132 194.44 178.314Z" fill="#FF7381"/>
<path d="M206.942 161.21C204.56 159.392 201.23 159.833 199.504 162.195C197.777 164.556 198.309 167.944 200.691 169.762C203.073 171.58 206.404 171.139 208.13 168.777C209.856 166.416 209.324 163.028 206.942 161.21Z" fill="#FF7381"/>
<path d="M219.444 144.105C217.062 142.287 213.731 142.728 212.005 145.09C210.279 147.452 210.811 150.84 213.193 152.658C215.575 154.475 218.905 154.034 220.631 151.673C222.358 149.311 221.826 145.923 219.444 144.105Z" fill="#FF7381"/>
<path d="M231.946 127.001C229.563 125.183 226.233 125.624 224.507 127.985C222.781 130.347 223.313 133.735 225.695 135.553C228.077 137.371 231.407 136.93 233.133 134.568C234.859 132.207 234.328 128.818 231.946 127.001Z" fill="#FF7381"/>
<path d="M244.447 109.896C242.065 108.078 238.735 108.519 237.009 110.881C235.283 113.242 235.814 116.631 238.196 118.448C240.578 120.266 243.909 119.825 245.635 117.464C247.361 115.102 246.829 111.714 244.447 109.896Z" fill="#FF7381"/>
<path d="M256.949 92.7915C254.567 90.9737 251.237 91.4146 249.511 93.7763C247.784 96.1379 248.316 99.526 250.698 101.344C253.08 103.162 256.41 102.721 258.137 100.359C259.863 97.9975 259.331 94.6093 256.949 92.7915Z" fill="#FF7381"/>
<path d="M269.451 75.687C267.069 73.8692 263.738 74.31 262.012 76.6717C260.286 79.0333 260.818 82.4215 263.2 84.2393C265.582 86.0571 268.912 85.6162 270.638 83.2545C272.364 80.8929 271.833 77.5048 269.451 75.687Z" fill="#FF7381"/>
<path d="M281.952 58.5824C279.57 56.7646 276.24 57.2055 274.514 59.5671C272.788 61.9288 273.32 65.3169 275.702 67.1347C278.084 68.9525 281.414 68.5116 283.14 66.15C284.866 63.7883 284.334 60.4002 281.952 58.5824Z" fill="#FF7381"/>
<path d="M294.454 41.4778C292.072 39.66 288.742 40.1009 287.016 42.4626C285.29 44.8242 285.821 48.2123 288.203 50.0301C290.585 51.8479 293.916 51.407 295.642 49.0454C297.368 46.6837 296.836 43.2956 294.454 41.4778Z" fill="#FF7381"/>
<path d="M164.687 182.253C162.304 180.435 158.974 180.876 157.248 183.238C155.522 185.6 156.054 188.988 158.436 190.806C160.818 192.623 164.148 192.183 165.874 189.821C167.6 187.459 167.069 184.071 164.687 182.253Z" fill="#FF7381"/>
<path d="M177.188 165.149C174.806 163.331 171.476 163.772 169.75 166.133C168.024 168.495 168.555 171.883 170.937 173.701C173.319 175.519 176.65 175.078 178.376 172.716C180.102 170.355 179.57 166.967 177.188 165.149Z" fill="#FF7381"/>
<path d="M189.69 148.044C187.308 146.226 183.978 146.667 182.251 149.029C180.525 151.391 181.057 154.779 183.439 156.596C185.821 158.414 189.151 157.973 190.878 155.612C192.604 153.25 192.072 149.862 189.69 148.044Z" fill="#FF7381"/>
<path d="M202.192 130.94C199.81 129.122 196.479 129.563 194.753 131.924C193.027 134.286 193.559 137.674 195.941 139.492C198.323 141.31 201.653 140.869 203.379 138.507C205.105 136.145 204.574 132.757 202.192 130.94Z" fill="#FF7381"/>
<path d="M214.693 113.835C212.311 112.017 208.981 112.458 207.255 114.82C205.529 117.181 206.061 120.569 208.443 122.387C210.825 124.205 214.155 123.764 215.881 121.403C217.607 119.041 217.075 115.653 214.693 113.835Z" fill="#FF7381"/>
<path d="M227.195 96.7304C224.813 94.9126 221.483 95.3535 219.757 97.7152C218.031 100.077 218.562 103.465 220.944 105.283C223.326 107.101 226.657 106.66 228.383 104.298C230.109 101.936 229.577 98.5482 227.195 96.7304Z" fill="#FF7381"/>
<path d="M239.697 79.6259C237.315 77.8081 233.985 78.2489 232.258 80.6106C230.532 82.9722 231.064 86.3603 233.446 88.1781C235.828 89.9959 239.158 89.5551 240.884 87.1934C242.611 84.8318 242.079 81.4437 239.697 79.6259Z" fill="#FF7381"/>
<path d="M252.199 62.5213C249.817 60.7035 246.486 61.1443 244.76 63.506C243.034 65.8676 243.566 69.2558 245.948 71.0736C248.33 72.8914 251.66 72.4505 253.386 70.0888C255.112 67.7272 254.581 64.3391 252.199 62.5213Z" fill="#FF7381"/>
<path d="M264.7 45.4167C262.318 43.5989 258.988 44.0398 257.262 46.4014C255.536 48.7631 256.067 52.1512 258.449 53.969C260.831 55.7868 264.162 55.3459 265.888 52.9843C267.614 50.6226 267.082 47.2345 264.7 45.4167Z" fill="#FF7381"/>
<path d="M277.202 28.3121C274.82 26.4943 271.49 26.9352 269.764 29.2969C268.037 31.6585 268.569 35.0466 270.951 36.8644C273.333 38.6822 276.663 38.2414 278.39 35.8797C280.116 33.5181 279.584 30.1299 277.202 28.3121Z" fill="#FF7381"/>
<path d="M147.434 169.088C145.052 167.27 141.722 167.711 139.996 170.072C138.27 172.434 138.801 175.822 141.184 177.64C143.566 179.458 146.896 179.017 148.622 176.655C150.348 174.294 149.816 170.905 147.434 169.088Z" fill="#FF7381"/>
<path d="M159.936 151.983C157.554 150.165 154.224 150.606 152.498 152.968C150.772 155.329 151.303 158.718 153.685 160.535C156.067 162.353 159.398 161.912 161.124 159.551C162.85 157.189 162.318 153.801 159.936 151.983Z" fill="#FF7381"/>
<path d="M172.438 134.878C170.056 133.061 166.726 133.502 164.999 135.863C163.273 138.225 163.805 141.613 166.187 143.431C168.569 145.249 171.899 144.808 173.625 142.446C175.352 140.084 174.82 136.696 172.438 134.878Z" fill="#FF7381"/>
<path d="M184.94 117.774C182.558 115.956 179.227 116.397 177.501 118.759C175.775 121.12 176.307 124.508 178.689 126.326C181.071 128.144 184.401 127.703 186.127 125.341C187.853 122.98 187.322 119.592 184.94 117.774Z" fill="#FF7381"/>
<path d="M197.441 100.669C195.059 98.8515 191.729 99.2924 190.003 101.654C188.277 104.016 188.808 107.404 191.19 109.222C193.572 111.039 196.903 110.599 198.629 108.237C200.355 105.875 199.823 102.487 197.441 100.669Z" fill="#FF7381"/>
<path d="M209.943 83.5647C207.561 81.7469 204.231 82.1878 202.505 84.5495C200.778 86.9111 201.31 90.2992 203.692 92.117C206.074 93.9348 209.404 93.494 211.131 91.1323C212.857 88.7707 212.325 85.3825 209.943 83.5647Z" fill="#FF7381"/>
<path d="M222.445 66.4602C220.063 64.6424 216.732 65.0832 215.006 67.4449C213.28 69.8065 213.812 73.1946 216.194 75.0124C218.576 76.8302 221.906 76.3894 223.632 74.0277C225.358 71.6661 224.827 68.278 222.445 66.4602Z" fill="#FF7381"/>
<path d="M234.946 49.3556C232.564 47.5378 229.234 47.9787 227.508 50.3403C225.782 52.7019 226.314 56.0901 228.696 57.9079C231.078 59.7257 234.408 59.2848 236.134 56.9232C237.86 54.5615 237.328 51.1734 234.946 49.3556Z" fill="#FF7381"/>
<path d="M247.448 32.251C245.066 30.4332 241.736 30.8741 240.01 33.2357C238.284 35.5974 238.815 38.9855 241.197 40.8033C243.579 42.6211 246.91 42.1802 248.636 39.8186C250.362 37.4569 249.83 34.0688 247.448 32.251Z" fill="#FF7381"/>
<path d="M259.95 15.1464C257.568 13.3286 254.238 13.7695 252.511 16.1312C250.785 18.4928 251.317 21.8809 253.699 23.6987C256.081 25.5165 259.411 25.0757 261.138 22.714C262.864 20.3524 262.332 16.9642 259.95 15.1464Z" fill="#FF7381"/>
<path d="M130.182 155.922C127.8 154.104 124.47 154.545 122.744 156.907C121.018 159.268 121.549 162.656 123.931 164.474C126.313 166.292 129.644 165.851 131.37 163.489C133.096 161.128 132.564 157.74 130.182 155.922Z" fill="#FF7381"/>
<path d="M142.684 138.817C140.302 137 136.972 137.44 135.246 139.802C133.519 142.164 134.051 145.552 136.433 147.37C138.815 149.187 142.145 148.747 143.872 146.385C145.598 144.023 145.066 140.635 142.684 138.817Z" fill="#FF7381"/>
<path d="M155.186 121.713C152.804 119.895 149.473 120.336 147.747 122.697C146.021 125.059 146.553 128.447 148.935 130.265C151.317 132.083 154.647 131.642 156.373 129.28C158.099 126.919 157.568 123.531 155.186 121.713Z" fill="#FF7381"/>
<path d="M167.687 104.608C165.305 102.79 161.975 103.231 160.249 105.593C158.523 107.955 159.055 111.343 161.437 113.16C163.819 114.978 167.149 114.537 168.875 112.176C170.601 109.814 170.069 106.426 167.687 104.608Z" fill="#FF7381"/>
<path d="M180.189 87.5036C177.807 85.6858 174.477 86.1267 172.751 88.4883C171.025 90.85 171.556 94.2381 173.938 96.0559C176.32 97.8737 179.651 97.4328 181.377 95.0712C183.103 92.7095 182.571 89.3214 180.189 87.5036Z" fill="#FF7381"/>
<path d="M192.691 70.3991C190.309 68.5813 186.979 69.0221 185.252 71.3838C183.526 73.7454 184.058 77.1335 186.44 78.9513C188.822 80.7691 192.152 80.3283 193.878 77.9666C195.605 75.605 195.073 72.2169 192.691 70.3991Z" fill="#FF7381"/>
<path d="M205.193 53.2945C202.811 51.4767 199.48 51.9175 197.754 54.2792C196.028 56.6408 196.56 60.029 198.942 61.8468C201.324 63.6646 204.654 63.2237 206.38 60.862C208.106 58.5004 207.575 55.1123 205.193 53.2945Z" fill="#FF7381"/>
<path d="M217.694 36.1899C215.312 34.3721 211.982 34.8129 210.256 37.1746C208.53 39.5362 209.061 42.9244 211.443 44.7422C213.826 46.56 217.156 46.1191 218.882 43.7575C220.608 41.3958 220.076 38.0077 217.694 36.1899Z" fill="#FF7381"/>
<path d="M230.196 19.0853C227.814 17.2675 224.484 17.7084 222.758 20.07C221.031 22.4317 221.563 25.8198 223.945 27.6376C226.327 29.4554 229.658 29.0145 231.384 26.6529C233.11 24.2912 232.578 20.9031 230.196 19.0853Z" fill="#FF7381"/>
<path d="M242.698 1.98076C240.316 0.162961 236.985 0.603817 235.259 2.96547C233.533 5.32711 234.065 8.71524 236.447 10.533C238.829 12.3508 242.159 11.91 243.885 9.54832C245.612 7.18667 245.08 3.79856 242.698 1.98076Z" fill="#FF7381"/>
<path d="M130.182 155.922C127.8 154.104 124.47 154.545 122.744 156.907C121.018 159.268 121.549 162.656 123.931 164.474C126.313 166.292 129.644 165.851 131.37 163.489C133.096 161.128 132.564 157.74 130.182 155.922Z" fill="#FF7381"/>
<path d="M142.684 138.817C140.302 137 136.972 137.44 135.246 139.802C133.519 142.164 134.051 145.552 136.433 147.37C138.815 149.187 142.145 148.747 143.872 146.385C145.598 144.023 145.066 140.635 142.684 138.817Z" fill="#FF7381"/>
<path d="M155.186 121.713C152.804 119.895 149.473 120.336 147.747 122.697C146.021 125.059 146.553 128.447 148.935 130.265C151.317 132.083 154.647 131.642 156.373 129.28C158.099 126.919 157.568 123.531 155.186 121.713Z" fill="#FF7381"/>
<path d="M167.687 104.608C165.305 102.79 161.975 103.231 160.249 105.593C158.523 107.955 159.055 111.343 161.437 113.16C163.819 114.978 167.149 114.537 168.875 112.176C170.601 109.814 170.069 106.426 167.687 104.608Z" fill="#FF7381"/>
<path d="M180.189 87.5036C177.807 85.6858 174.477 86.1267 172.751 88.4883C171.025 90.85 171.556 94.2381 173.938 96.0559C176.32 97.8737 179.651 97.4328 181.377 95.0712C183.103 92.7095 182.571 89.3214 180.189 87.5036Z" fill="#FF7381"/>
<path d="M192.691 70.3991C190.309 68.5813 186.979 69.0221 185.252 71.3838C183.526 73.7454 184.058 77.1335 186.44 78.9513C188.822 80.7691 192.152 80.3283 193.878 77.9666C195.605 75.605 195.073 72.2169 192.691 70.3991Z" fill="#FF7381"/>
<path d="M205.193 53.2945C202.811 51.4767 199.48 51.9175 197.754 54.2792C196.028 56.6408 196.56 60.029 198.942 61.8468C201.324 63.6646 204.654 63.2237 206.38 60.862C208.106 58.5004 207.575 55.1123 205.193 53.2945Z" fill="#FF7381"/>
<path d="M217.694 36.1899C215.312 34.3721 211.982 34.8129 210.256 37.1746C208.53 39.5362 209.061 42.9244 211.443 44.7422C213.826 46.56 217.156 46.1191 218.882 43.7575C220.608 41.3958 220.076 38.0077 217.694 36.1899Z" fill="#FF7381"/>
<path d="M230.196 19.0853C227.814 17.2675 224.484 17.7084 222.758 20.07C221.031 22.4317 221.563 25.8198 223.945 27.6376C226.327 29.4554 229.658 29.0145 231.384 26.6529C233.11 24.2912 232.578 20.9031 230.196 19.0853Z" fill="#FF7381"/>
<path d="M242.698 1.98076C240.316 0.162961 236.985 0.603817 235.259 2.96547C233.533 5.32711 234.065 8.71524 236.447 10.533C238.829 12.3508 242.159 11.91 243.885 9.54832C245.612 7.18667 245.08 3.79856 242.698 1.98076Z" fill="#FF7381"/>
<path d="M112.93 142.756C110.548 140.938 107.218 141.379 105.492 143.741C103.766 146.103 104.297 149.491 106.679 151.309C109.061 153.126 112.392 152.685 114.118 150.324C115.844 147.962 115.312 144.574 112.93 142.756Z" fill="#FF7381"/>
<path d="M125.432 125.652C123.05 123.834 119.72 124.275 117.993 126.636C116.267 128.998 116.799 132.386 119.181 134.204C121.563 136.022 124.893 135.581 126.619 133.219C128.346 130.858 127.814 127.469 125.432 125.652Z" fill="#FF7381"/>
<path d="M137.934 108.547C135.552 106.729 132.221 107.17 130.495 109.532C128.769 111.893 129.301 115.282 131.683 117.099C134.065 118.917 137.395 118.476 139.121 116.115C140.847 113.753 140.316 110.365 137.934 108.547Z" fill="#FF7381"/>
<path d="M150.435 91.4425C148.053 89.6247 144.723 90.0656 142.997 92.4272C141.271 94.7889 141.802 98.177 144.184 99.9948C146.566 101.813 149.897 101.372 151.623 99.0101C153.349 96.6484 152.817 93.2603 150.435 91.4425Z" fill="#FF7381"/>
<path d="M162.937 74.3379C160.555 72.5201 157.225 72.961 155.499 75.3227C153.772 77.6843 154.304 81.0724 156.686 82.8902C159.068 84.708 162.399 84.2671 164.125 81.9055C165.851 79.5438 165.319 76.1557 162.937 74.3379Z" fill="#FF7381"/>
<path d="M175.439 57.2333C173.057 55.4155 169.726 55.8564 168 58.2181C166.274 60.5797 166.806 63.9678 169.188 65.7856C171.57 67.6034 174.9 67.1626 176.626 64.8009C178.353 62.4393 177.821 59.0511 175.439 57.2333Z" fill="#FF7381"/>
<path d="M187.94 40.1288C185.558 38.311 182.228 38.7519 180.502 41.1135C178.776 43.4752 179.308 46.8633 181.69 48.6811C184.072 50.4989 187.402 50.058 189.128 47.6964C190.854 45.3347 190.323 41.9466 187.94 40.1288Z" fill="#FF7381"/>
<path d="M200.442 23.0242C198.06 21.2064 194.73 21.6473 193.004 24.0089C191.278 26.3706 191.809 29.7587 194.191 31.5765C196.573 33.3943 199.904 32.9534 201.63 30.5918C203.356 28.2301 202.824 24.842 200.442 23.0242Z" fill="#FF7381"/>
<path d="M212.944 5.91962C210.562 4.10182 207.232 4.5427 205.506 6.90435C203.779 9.26601 204.311 12.6541 206.693 14.4719C209.075 16.2897 212.405 15.8489 214.132 13.4872C215.858 11.1255 215.326 7.73742 212.944 5.91962Z" fill="#FF7381"/>
<path d="M225.446 -11.1849C223.064 -13.0027 219.733 -12.5619 218.007 -10.2002C216.281 -7.83856 216.813 -4.45046 219.195 -2.63266C221.577 -0.814861 224.907 -1.25571 226.633 -3.61735C228.359 -5.97901 227.828 -9.36714 225.446 -11.1849Z" fill="#FF7381"/>
<path d="M95.678 129.591C93.296 127.773 89.9657 128.214 88.2396 130.575C86.5134 132.937 87.0452 136.325 89.4272 138.143C91.8092 139.961 95.1395 139.52 96.8656 137.158C98.5918 134.796 98.0601 131.408 95.678 129.591Z" fill="#FF7381"/>
<path d="M108.18 112.486C105.798 110.668 102.467 111.109 100.741 113.471C99.0152 115.832 99.5469 119.22 101.929 121.038C104.311 122.856 107.641 122.415 109.367 120.054C111.093 117.692 110.562 114.304 108.18 112.486Z" fill="#FF7381"/>
<path d="M120.682 95.3814C118.299 93.5636 114.969 94.0044 113.243 96.3661C111.517 98.7277 112.049 102.116 114.431 103.934C116.813 105.751 120.143 105.311 121.869 102.949C123.595 100.587 123.064 97.1992 120.682 95.3814Z" fill="#FF7381"/>
<path d="M133.183 78.2768C130.801 76.459 127.471 76.8999 125.745 79.2615C124.019 81.6232 124.55 85.0113 126.932 86.8291C129.314 88.6469 132.645 88.206 134.371 85.8444C136.097 83.4827 135.565 80.0946 133.183 78.2768Z" fill="#FF7381"/>
<path d="M145.685 61.1723C143.303 59.3544 139.973 59.7953 138.246 62.1569C136.52 64.5186 137.052 67.9067 139.434 69.7245C141.816 71.5423 145.146 71.1014 146.873 68.7398C148.599 66.3781 148.067 62.9901 145.685 61.1723Z" fill="#FF7381"/>
<path d="M158.187 44.0677C155.805 42.2499 152.474 42.6907 150.748 45.0524C149.022 47.414 149.554 50.8022 151.936 52.62C154.318 54.4378 157.648 53.9969 159.374 51.6352C161.1 49.2736 160.569 45.8855 158.187 44.0677Z" fill="#FF7381"/>
<path d="M170.688 26.9631C168.306 25.1453 164.976 25.5862 163.25 27.9478C161.524 30.3095 162.056 33.6976 164.438 35.5154C166.82 37.3332 170.15 36.8923 171.876 34.5307C173.602 32.169 173.07 28.7809 170.688 26.9631Z" fill="#FF7381"/>
<path d="M183.19 9.85853C180.808 8.04073 177.478 8.48157 175.752 10.8432C174.026 13.2049 174.557 16.593 176.939 18.4108C179.321 20.2286 182.652 19.7877 184.378 17.4261C186.104 15.0644 185.572 11.6763 183.19 9.85853Z" fill="#FF7381"/>
<path d="M195.692 -7.24605C193.31 -9.06385 189.979 -8.62301 188.253 -6.26135C186.527 -3.8997 187.059 -0.511542 189.441 1.30626C191.823 3.12406 195.153 2.68315 196.879 0.321501C198.606 -2.04015 198.074 -5.42825 195.692 -7.24605Z" fill="#FF7381"/>
<path d="M208.194 -24.3506C205.812 -26.1684 202.481 -25.7276 200.755 -23.3659C199.029 -21.0043 199.561 -17.6161 201.943 -15.7983C204.325 -13.9805 207.655 -14.4214 209.381 -16.7831C211.107 -19.1447 210.576 -22.5328 208.194 -24.3506Z" fill="#FF7381"/>
<path d="M78.4259 116.425C76.0439 114.607 72.7136 115.048 70.9874 117.41C69.2613 119.771 69.793 123.159 72.175 124.977C74.5571 126.795 77.8874 126.354 79.6135 123.992C81.3396 121.631 80.8079 118.243 78.4259 116.425Z" fill="#FF7381"/>
<path d="M90.9276 99.3203C88.5456 97.5025 85.2153 97.9433 83.4892 100.305C81.763 102.667 82.2947 106.055 84.6768 107.873C87.0588 109.69 90.3891 109.249 92.1152 106.888C93.8414 104.526 93.3097 101.138 90.9276 99.3203Z" fill="#FF7381"/>
<path d="M103.429 82.2157C101.047 80.3979 97.717 80.8387 95.9909 83.2004C94.2648 85.562 94.7965 88.9502 97.1785 90.768C99.5605 92.5858 102.891 92.1449 104.617 89.7833C106.343 87.4216 105.811 84.0335 103.429 82.2157Z" fill="#FF7381"/>
<path d="M115.931 65.1111C113.549 63.2933 110.219 63.7342 108.493 66.0958C106.766 68.4575 107.298 71.8456 109.68 73.6634C112.062 75.4812 115.393 75.0403 117.119 72.6787C118.845 70.317 118.313 66.9289 115.931 65.1111Z" fill="#FF7381"/>
<path d="M128.433 48.0065C126.051 46.1887 122.72 46.6296 120.994 48.9912C119.268 51.3529 119.8 54.741 122.182 56.5588C124.564 58.3766 127.894 57.9358 129.62 55.5741C131.347 53.2124 130.815 49.8244 128.433 48.0065Z" fill="#FF7381"/>
<path d="M140.935 30.902C138.553 29.0842 135.222 29.525 133.496 31.8867C131.77 34.2483 132.302 37.6364 134.684 39.4542C137.066 41.2721 140.396 40.8312 142.122 38.4695C143.848 36.1079 143.317 32.7198 140.935 30.902Z" fill="#FF7381"/>
<path d="M153.436 13.7974C151.054 11.9796 147.724 12.4205 145.998 14.7821C144.272 17.1438 144.803 20.5319 147.185 22.3497C149.567 24.1675 152.898 23.7266 154.624 21.365C156.35 19.0033 155.818 15.6152 153.436 13.7974Z" fill="#FF7381"/>
<path d="M165.938 -3.30719C163.556 -5.12499 160.226 -4.68413 158.5 -2.32247C156.773 0.0391696 157.305 3.42731 159.687 5.24511C162.069 7.06293 165.399 6.62202 167.126 4.26038C168.852 1.89873 168.32 -1.48937 165.938 -3.30719Z" fill="#FF7381"/>
<path d="M178.44 -20.4118C176.058 -22.2296 172.727 -21.7887 171.001 -19.427C169.275 -17.0654 169.807 -13.6773 172.189 -11.8595C174.571 -10.0416 177.901 -10.4825 179.627 -12.8442C181.353 -15.2059 180.822 -18.5939 178.44 -20.4118Z" fill="#FF7381"/>
<path d="M190.941 -37.5163C188.559 -39.3341 185.229 -38.8933 183.503 -36.5316C181.777 -34.17 182.309 -30.7818 184.691 -28.964C187.073 -27.1462 190.403 -27.5871 192.129 -29.9487C193.855 -32.3104 193.323 -35.6985 190.941 -37.5163Z" fill="#FF7381"/>
<path d="M61.1738 103.259C58.7918 101.441 55.4615 101.882 53.7353 104.244C52.0092 106.606 52.5409 109.994 54.9229 111.811C57.3049 113.629 60.6353 113.188 62.3614 110.827C64.0875 108.465 63.5558 105.077 61.1738 103.259Z" fill="#FF7381"/>
<path d="M73.6755 86.1546C71.2935 84.3368 67.9632 84.7777 66.2371 87.1393C64.5109 89.5009 65.0426 92.8891 67.4246 94.7069C69.8067 96.5247 73.137 96.0838 74.8631 93.7221C76.5892 91.3605 76.0575 87.9724 73.6755 86.1546Z" fill="#FF7381"/>
<path d="M86.1772 69.05C83.7952 67.2322 80.4649 67.6731 78.7388 70.0347C77.0127 72.3964 77.5444 75.7845 79.9264 77.6023C82.3084 79.4201 85.6387 78.9792 87.3648 76.6176C89.091 74.2559 88.5593 70.8678 86.1772 69.05Z" fill="#FF7381"/>
<path d="M98.679 51.9454C96.2969 50.1276 92.9666 50.5685 91.2405 52.9302C89.5144 55.2918 90.0461 58.6799 92.4281 60.4977C94.8101 62.3155 98.1404 61.8746 99.8666 59.513C101.593 57.1513 101.061 53.7632 98.679 51.9454Z" fill="#FF7381"/>
<path d="M111.181 34.8408C108.799 33.023 105.468 33.4639 103.742 35.8256C102.016 38.1872 102.548 41.5753 104.93 43.3931C107.312 45.2109 110.642 44.7701 112.368 42.4084C114.094 40.0468 113.563 36.6586 111.181 34.8408Z" fill="#FF7381"/>
<path d="M123.682 17.7363C121.3 15.9185 117.97 16.3594 116.244 18.721C114.518 21.0827 115.05 24.4708 117.432 26.2886C119.814 28.1064 123.144 27.6655 124.87 25.3038C126.596 22.9422 126.064 19.5541 123.682 17.7363Z" fill="#FF7381"/>
<path d="M136.184 0.631703C133.802 -1.1861 130.472 -0.745205 128.746 1.61644C127.02 3.97809 127.551 7.36619 129.933 9.18399C132.315 11.0018 135.646 10.5609 137.372 8.19927C139.098 5.83763 138.566 2.4495 136.184 0.631703Z" fill="#FF7381"/>
<path d="M148.686 -16.4729C146.304 -18.2907 142.974 -17.8498 141.247 -15.4881C139.521 -13.1265 140.053 -9.73838 142.435 -7.92058C144.817 -6.10278 148.147 -6.54367 149.873 -8.90531C151.6 -11.267 151.068 -14.6551 148.686 -16.4729Z" fill="#FF7381"/>
<path d="M161.188 -33.5775C158.806 -35.3953 155.475 -34.9544 153.749 -32.5927C152.023 -30.2311 152.555 -26.8429 154.937 -25.0251C157.319 -23.2073 160.649 -23.6482 162.375 -26.0099C164.101 -28.3715 163.57 -31.7597 161.188 -33.5775Z" fill="#FF7381"/>
<path d="M173.689 -50.682C171.307 -52.4998 167.977 -52.0589 166.251 -49.6973C164.525 -47.3356 165.056 -43.9475 167.438 -42.1297C169.82 -40.3119 173.151 -40.7528 174.877 -43.1144C176.603 -45.4761 176.071 -48.8642 173.689 -50.682Z" fill="#FF7381"/>
<path d="M43.9217 90.0935C41.5397 88.2757 38.2094 88.7165 36.4832 91.0782C34.7571 93.4398 35.2888 96.8279 37.6708 98.6457C40.0529 100.464 43.3831 100.023 45.1093 97.661C46.8354 95.2994 46.3037 91.9113 43.9217 90.0935Z" fill="#FF7381"/>
<path d="M56.4234 72.9889C54.0414 71.1711 50.7111 71.612 48.985 73.9736C47.2588 76.3353 47.7905 79.7234 50.1725 81.5412C52.5546 83.359 55.8849 82.9181 57.611 80.5564C59.3371 78.1948 58.8054 74.8067 56.4234 72.9889Z" fill="#FF7381"/>
<path d="M68.9251 55.8843C66.5431 54.0665 63.2128 54.5074 61.4867 56.869C59.7606 59.2307 60.2922 62.6188 62.6743 64.4366C65.0563 66.2544 68.3866 65.8135 70.1127 63.4519C71.8389 61.0902 71.3072 57.7021 68.9251 55.8843Z" fill="#FF7381"/>
<path d="M81.4268 38.7797C79.0448 36.9619 75.7145 37.4028 73.9884 39.7645C72.2623 42.1261 72.794 45.5142 75.176 47.332C77.558 49.1498 80.8883 48.709 82.6144 46.3473C84.3406 43.9857 83.8089 40.5976 81.4268 38.7797Z" fill="#FF7381"/>
<path d="M93.9286 21.6752C91.5466 19.8574 88.2163 20.2982 86.4901 22.6599C84.764 25.0215 85.2957 28.4097 87.6777 30.2275C90.0597 32.0453 93.39 31.6044 95.1162 29.2427C96.8423 26.8811 96.3106 23.493 93.9286 21.6752Z" fill="#FF7381"/>
<path d="M106.43 4.57059C104.048 2.75279 100.718 3.19367 98.9919 5.55533C97.2657 7.91697 97.7974 11.3051 100.179 13.1229C102.561 14.9407 105.892 14.4998 107.618 12.1382C109.344 9.77651 108.812 6.38841 106.43 4.57059Z" fill="#FF7381"/>
<path d="M118.932 -12.534C116.55 -14.3518 113.22 -13.9109 111.494 -11.5493C109.767 -9.1876 110.299 -5.7995 112.681 -3.9817C115.063 -2.16388 118.393 -2.60476 120.12 -4.96642C121.846 -7.32806 121.314 -10.7162 118.932 -12.534Z" fill="#FF7381"/>
<path d="M131.434 -29.6386C129.052 -31.4564 125.721 -31.0155 123.995 -28.6538C122.269 -26.2922 122.801 -22.9041 125.183 -21.0863C127.565 -19.2684 130.895 -19.7094 132.621 -22.071C134.347 -24.4326 133.816 -27.8207 131.434 -29.6386Z" fill="#FF7381"/>
<path d="M143.935 -46.7431C141.553 -48.5609 138.223 -48.1201 136.497 -45.7584C134.771 -43.3968 135.303 -40.0086 137.685 -38.1908C140.067 -36.373 143.397 -36.8139 145.123 -39.1756C146.849 -41.5372 146.318 -44.9253 143.935 -46.7431Z" fill="#FF7381"/>
<path d="M156.437 -63.8477C154.055 -65.6655 150.725 -65.2246 148.999 -62.863C147.273 -60.5013 147.804 -57.1132 150.186 -55.2954C152.568 -53.4776 155.899 -53.9185 157.625 -56.2801C159.351 -58.6418 158.819 -62.0299 156.437 -63.8477Z" fill="#FF7381"/>
<path d="M26.6696 76.9278C24.2875 75.11 20.9572 75.5509 19.2311 77.9125C17.505 80.2741 18.0367 83.6623 20.4187 85.4801C22.8007 87.2979 26.131 86.857 27.8572 84.4953C29.5833 82.1337 29.0516 78.7456 26.6696 76.9278Z" fill="#FF7381"/>
<path d="M39.1713 59.8232C36.7893 58.0054 33.459 58.4463 31.7328 60.8079C30.0067 63.1696 30.5384 66.5577 32.9204 68.3755C35.3024 70.1933 38.6328 69.7524 40.3589 67.3908C42.085 65.0291 41.5533 61.641 39.1713 59.8232Z" fill="#FF7381"/>
<path d="M51.673 42.7186C49.291 40.9008 45.9607 41.3417 44.2346 43.7034C42.5084 46.065 43.0401 49.4531 45.4221 51.2709C47.8042 53.0887 51.1345 52.6478 52.8606 50.2862C54.5867 47.9245 54.055 44.5364 51.673 42.7186Z" fill="#FF7381"/>
<path d="M64.1747 25.614C61.7927 23.7962 58.4624 24.2371 56.7363 26.5988C55.0102 28.9604 55.5419 32.3485 57.9239 34.1663C60.3059 35.9841 63.6362 35.5433 65.3623 33.1816C67.0885 30.82 66.5567 27.4318 64.1747 25.614Z" fill="#FF7381"/>
<path d="M76.6765 8.50947C74.2944 6.69167 70.9641 7.13255 69.238 9.4942C67.5119 11.8559 68.0436 15.244 70.4256 17.0618C72.8076 18.8796 76.1379 18.4387 77.8641 16.077C79.5902 13.7154 79.0585 10.3273 76.6765 8.50947Z" fill="#FF7381"/>
<path d="M89.1782 -8.5951C86.7962 -10.4129 83.4659 -9.97202 81.7397 -7.61036C80.0136 -5.24871 80.5453 -1.86063 82.9273 -0.0428247C85.3093 1.77498 88.6397 1.33412 90.3658 -1.02753C92.0919 -3.38918 91.5602 -6.7773 89.1782 -8.5951Z" fill="#FF7381"/>
<path d="M101.68 -25.6997C99.2979 -27.5175 95.9676 -27.0766 94.2415 -24.7149C92.5153 -22.3533 93.047 -18.9652 95.429 -17.1474C97.8111 -15.3296 101.141 -15.7705 102.868 -18.1321C104.594 -20.4937 104.062 -23.8819 101.68 -25.6997Z" fill="#FF7381"/>
<path d="M114.182 -42.8043C111.8 -44.6221 108.469 -44.1812 106.743 -41.8195C105.017 -39.4579 105.549 -36.0698 107.931 -34.252C110.313 -32.4342 113.643 -32.875 115.369 -35.2367C117.095 -37.5983 116.564 -40.9864 114.182 -42.8043Z" fill="#FF7381"/>
<path d="M126.683 -59.9088C124.301 -61.7266 120.971 -61.2857 119.245 -58.9241C117.519 -56.5624 118.05 -53.1743 120.432 -51.3565C122.815 -49.5387 126.145 -49.9796 127.871 -52.3413C129.597 -54.7029 129.065 -58.091 126.683 -59.9088Z" fill="#FF7381"/>
<path d="M139.185 -77.0134C136.803 -78.8312 133.473 -78.3903 131.747 -76.0286C130.021 -73.667 130.552 -70.2789 132.934 -68.4611C135.316 -66.6433 138.647 -67.0842 140.373 -69.4458C142.099 -71.8075 141.567 -75.1956 139.185 -77.0134Z" fill="#FF7381"/>
<path d="M9.41744 63.7621C7.03542 61.9443 3.70511 62.3851 1.97898 64.7468C0.252849 67.1084 0.784563 70.4966 3.16658 72.3144C5.5486 74.1322 8.87894 73.6913 10.6051 71.3297C12.3312 68.968 11.7995 65.5799 9.41744 63.7621Z" fill="#FF7381"/>
<path d="M21.9192 46.6575C19.5372 44.8397 16.2068 45.2806 14.4807 47.6422C12.7546 50.0039 13.2863 53.392 15.6683 55.2098C18.0503 57.0276 21.3807 56.5867 23.1068 54.2251C24.8329 51.8634 24.3012 48.4753 21.9192 46.6575Z" fill="#FF7381"/>
<path d="M34.4209 29.5529C32.0389 27.7351 28.7086 28.176 26.9824 30.5376C25.2563 32.8993 25.788 36.2874 28.17 38.1052C30.552 39.923 33.8824 39.4822 35.6085 37.1205C37.3347 34.7589 36.8029 31.3707 34.4209 29.5529Z" fill="#FF7381"/>
<path d="M46.9226 12.4484C44.5406 10.6306 41.2103 11.0714 39.4842 13.4331C37.758 15.7947 38.2897 19.1828 40.6718 21.0006C43.0538 22.8184 46.3841 22.3776 48.1102 20.0159C49.8364 17.6543 49.3046 14.2662 46.9226 12.4484Z" fill="#FF7381"/>
<path d="M59.4243 -4.65622C57.0423 -6.47402 53.712 -6.03316 51.9859 -3.6715C50.2598 -1.30986 50.7915 2.07828 53.1735 3.89608C55.5555 5.71388 58.8858 5.27302 60.612 2.91137C62.3381 0.549715 61.8064 -2.83842 59.4243 -4.65622Z" fill="#FF7381"/>
<path d="M71.9261 -21.7608C69.544 -23.5786 66.2137 -23.1377 64.4876 -20.7761C62.7615 -18.4144 63.2932 -15.0263 65.6752 -13.2085C68.0572 -11.3907 71.3876 -11.8315 73.1137 -14.1932C74.8398 -16.5549 74.3081 -19.943 71.9261 -21.7608Z" fill="#FF7381"/>
<path d="M84.4278 -38.8654C82.0458 -40.6832 78.7154 -40.2423 76.9893 -37.8806C75.2632 -35.519 75.7949 -32.1309 78.1769 -30.3131C80.5589 -28.4953 83.8893 -28.9361 85.6154 -31.2978C87.3415 -33.6594 86.8098 -37.0476 84.4278 -38.8654Z" fill="#FF7381"/>
<path d="M96.9295 -55.9699C94.5475 -57.7877 91.2172 -57.3469 89.4911 -54.9852C87.7649 -52.6236 88.2966 -49.2354 90.6787 -47.4176C93.0607 -45.5998 96.391 -46.0407 98.1171 -48.4024C99.8433 -50.764 99.3115 -54.1521 96.9295 -55.9699Z" fill="#FF7381"/>
<path d="M109.431 -73.0745C107.049 -74.8923 103.719 -74.4515 101.993 -72.0898C100.267 -69.7281 100.798 -66.34 103.18 -64.5222C105.562 -62.7044 108.893 -63.1453 110.619 -65.5069C112.345 -67.8686 111.813 -71.2567 109.431 -73.0745Z" fill="#FF7381"/>
<path d="M121.933 -90.1791C119.551 -91.9969 116.221 -91.556 114.494 -89.1944C112.768 -86.8327 113.3 -83.4446 115.682 -81.6268C118.064 -79.809 121.394 -80.2498 123.121 -82.6115C124.847 -84.9731 124.315 -88.3613 121.933 -90.1791Z" fill="#FF7381"/>
<path d="M-7.83465 50.5964C-10.2167 48.7786 -13.547 49.2195 -15.2731 51.5811C-16.9993 53.9428 -16.4675 57.3309 -14.0855 59.1487C-11.7035 60.9665 -8.3732 60.5256 -6.64707 58.164C-4.92094 55.8023 -5.45263 52.4142 -7.83465 50.5964Z" fill="#FF7381"/>
<path d="M4.66708 33.4918C2.28506 31.674 -1.04528 32.1149 -2.77141 34.4765C-4.49754 36.8382 -3.9658 40.2263 -1.58379 42.0441C0.798233 43.8619 4.12853 43.421 5.85466 41.0594C7.58079 38.6977 7.0491 35.3096 4.66708 33.4918Z" fill="#FF7381"/>
<path d="M17.1688 16.3873C14.7868 14.5695 11.4564 15.0103 9.73031 17.372C8.00419 19.7336 8.53592 23.1218 10.9179 24.9396C13.3 26.7574 16.6303 26.3165 18.3564 23.9548C20.0825 21.5932 19.5508 18.2051 17.1688 16.3873Z" fill="#FF7381"/>
<path d="M29.6705 -0.71731C27.2885 -2.53511 23.9582 -2.09426 22.232 0.267387C20.5059 2.62903 21.0376 6.01717 23.4197 7.83497C25.8017 9.65277 29.132 9.21189 30.8581 6.85024C32.5842 4.48859 32.0525 1.10049 29.6705 -0.71731Z" fill="#FF7381"/>
<path d="M42.1723 -17.8219C39.7902 -19.6397 36.4599 -19.1988 34.7338 -16.8372C33.0076 -14.4755 33.5394 -11.0874 35.9214 -9.26959C38.3034 -7.45179 41.6337 -7.89269 43.3598 -10.2543C45.086 -12.616 44.5543 -16.0041 42.1723 -17.8219Z" fill="#FF7381"/>
<path d="M54.674 -34.9265C52.292 -36.7443 48.9616 -36.3034 47.2355 -33.9418C45.5094 -31.5801 46.0411 -28.192 48.4231 -26.3742C50.8051 -24.5564 54.1354 -24.9973 55.8616 -27.3589C57.5877 -29.7206 57.056 -33.1087 54.674 -34.9265Z" fill="#FF7381"/>
<path d="M67.1757 -52.031C64.7937 -53.8488 61.4633 -53.408 59.7372 -51.0463C58.0111 -48.6847 58.5428 -45.2965 60.9248 -43.4787C63.3069 -41.6609 66.6372 -42.1018 68.3633 -44.4635C70.0894 -46.8251 69.5577 -50.2132 67.1757 -52.031Z" fill="#FF7381"/>
<path d="M79.6774 -69.1356C77.2954 -70.9534 73.9651 -70.5126 72.2389 -68.1509C70.5128 -65.7893 71.0445 -62.4011 73.4266 -60.5833C75.8086 -58.7655 79.1389 -59.2064 80.865 -61.5681C82.5911 -63.9297 82.0594 -67.3178 79.6774 -69.1356Z" fill="#FF7381"/>
<path d="M92.1792 -86.2402C89.7971 -88.058 86.4668 -87.6171 84.7407 -85.2555C83.0145 -82.8938 83.5463 -79.5057 85.9283 -77.6879C88.3103 -75.8701 91.6406 -76.311 93.3667 -78.6726C95.0929 -81.0343 94.5612 -84.4224 92.1792 -86.2402Z" fill="#FF7381"/>
<path d="M104.681 -103.345C102.299 -105.163 98.9685 -104.722 97.2424 -102.36C95.5163 -99.9984 96.048 -96.6103 98.43 -94.7925C100.812 -92.9747 104.142 -93.4155 105.868 -95.7772C107.595 -98.1388 107.063 -101.527 104.681 -103.345Z" fill="#FF7381"/>
<path d="M-25.0868 37.4307C-27.4688 35.6129 -30.7991 36.0538 -32.5252 38.4154C-34.2514 40.7771 -33.7197 44.1652 -31.3376 45.983C-28.9556 47.8008 -25.6253 47.3599 -23.8992 44.9983C-22.1731 42.6366 -22.7048 39.2485 -25.0868 37.4307Z" fill="#FF7381"/>
<path d="M-12.5851 20.3261C-14.9671 18.5083 -18.2974 18.9492 -20.0235 21.3109C-21.7496 23.6725 -21.2179 27.0606 -18.8359 28.8784C-16.4539 30.6962 -13.1236 30.2553 -11.3975 27.8937C-9.67135 25.532 -10.203 22.1439 -12.5851 20.3261Z" fill="#FF7381"/>
<path d="M-0.0833313 3.22155C-2.46535 1.40375 -5.79565 1.84464 -7.52178 4.20629C-9.2479 6.56794 -8.71622 9.95604 -6.3342 11.7738C-3.95218 13.5916 -0.621882 13.1508 1.10424 10.7891C2.83037 8.42745 2.29869 5.03935 -0.0833313 3.22155Z" fill="#FF7381"/>
<path d="M12.4184 -13.883C10.0364 -15.7008 6.70607 -15.2599 4.97995 -12.8983C3.25382 -10.5366 3.78551 -7.14853 6.16753 -5.33073C8.54955 -3.51293 11.8798 -3.95382 13.606 -6.31547C15.3321 -8.67711 14.8004 -12.0652 12.4184 -13.883Z" fill="#FF7381"/>
<path d="M24.9201 -30.9876C22.5381 -32.8054 19.2078 -32.3645 17.4817 -30.0029C15.7555 -27.6412 16.2872 -24.2531 18.6692 -22.4353C21.0513 -20.6175 24.3816 -21.0584 26.1077 -23.42C27.8338 -25.7817 27.3021 -29.1698 24.9201 -30.9876Z" fill="#FF7381"/>
<path d="M37.4218 -48.0922C35.0398 -49.91 31.7095 -49.4691 29.9834 -47.1074C28.2573 -44.7458 28.789 -41.3577 31.171 -39.5399C33.553 -37.7221 36.8833 -38.163 38.6094 -40.5246C40.3355 -42.8863 39.8039 -46.2744 37.4218 -48.0922Z" fill="#FF7381"/>
<path d="M49.9236 -65.1967C47.5415 -67.0145 44.2112 -66.5736 42.4851 -64.212C40.759 -61.8504 41.2907 -58.4623 43.6727 -56.6445C46.0547 -54.8267 49.385 -55.2675 51.1111 -57.6292C52.8373 -59.9908 52.3056 -63.3789 49.9236 -65.1967Z" fill="#FF7381"/>
<path d="M62.4253 -82.3013C60.0433 -84.1191 56.713 -83.6782 54.9869 -81.3166C53.2607 -78.9549 53.7924 -75.5668 56.1744 -73.749C58.5564 -71.9312 61.8867 -72.3721 63.6129 -74.7338C65.339 -77.0954 64.8073 -80.4835 62.4253 -82.3013Z" fill="#FF7381"/>
<path d="M74.927 -99.4059C72.545 -101.224 69.2147 -100.783 67.4886 -98.4212C65.7624 -96.0595 66.2941 -92.6714 68.6761 -90.8536C71.0582 -89.0358 74.3885 -89.4767 76.1146 -91.8383C77.8407 -94.2 77.309 -97.5881 74.927 -99.4059Z" fill="#FF7381"/>
<path d="M87.4287 -116.51C85.0467 -118.328 81.7164 -117.887 79.9903 -115.526C78.2642 -113.164 78.7959 -109.776 81.1779 -107.958C83.5599 -106.14 86.8902 -106.581 88.6163 -108.943C90.3424 -111.305 89.8108 -114.693 87.4287 -116.51Z" fill="#FF7381"/>
<path d="M410.469 103.367C408.087 101.55 404.756 101.99 403.03 104.352C401.304 106.714 401.836 110.102 404.218 111.92C406.6 113.737 409.93 113.297 411.656 110.935C413.382 108.573 412.851 105.185 410.469 103.367Z" fill="#FF7381"/>
<path d="M422.97 86.2628C420.588 84.445 417.258 84.8859 415.532 87.2475C413.806 89.6092 414.337 92.9973 416.719 94.8151C419.101 96.6329 422.432 96.192 424.158 93.8304C425.884 91.4687 425.352 88.0806 422.97 86.2628Z" fill="#FF7381"/>
<path d="M435.472 69.1582C433.09 67.3404 429.76 67.7813 428.034 70.143C426.307 72.5046 426.839 75.8927 429.221 77.7105C431.603 79.5283 434.933 79.0875 436.66 76.7258C438.386 74.3642 437.854 70.976 435.472 69.1582Z" fill="#FF7381"/>
<path d="M447.974 52.0537C445.592 50.2359 442.261 50.6767 440.535 53.0384C438.809 55.4 439.341 58.7882 441.723 60.606C444.105 62.4238 447.435 61.9829 449.161 59.6212C450.887 57.2596 450.356 53.8715 447.974 52.0537Z" fill="#FF7381"/>
<path d="M460.475 34.9491C458.093 33.1313 454.763 33.5722 453.037 35.9338C451.311 38.2955 451.843 41.6836 454.225 43.5014C456.607 45.3192 459.937 44.8783 461.663 42.5167C463.389 40.155 462.857 36.7669 460.475 34.9491Z" fill="#FF7381"/>
<path d="M472.977 17.8445C470.595 16.0267 467.265 16.4676 465.539 18.8293C463.813 21.1909 464.344 24.579 466.726 26.3968C469.108 28.2146 472.439 27.7737 474.165 25.4121C475.891 23.0504 475.359 19.6623 472.977 17.8445Z" fill="#FF7381"/>
<path d="M485.479 0.739935C483.097 -1.07787 479.767 -0.636999 478.04 1.72467C476.314 4.08631 476.846 7.47447 479.228 9.29227C481.61 11.1101 484.94 10.6692 486.667 8.30751C488.393 5.94585 487.861 2.55774 485.479 0.739935Z" fill="#FF7381"/>
<path d="M497.981 -16.3646C495.599 -18.1824 492.268 -17.7415 490.542 -15.3799C488.816 -13.0183 489.348 -9.63015 491.73 -7.81235C494.112 -5.99454 497.442 -6.43541 499.168 -8.79705C500.894 -11.1587 500.363 -14.5468 497.981 -16.3646Z" fill="#FF7381"/>
<path d="M510.482 -33.4692C508.1 -35.287 504.77 -34.8461 503.044 -32.4845C501.318 -30.1228 501.849 -26.7347 504.232 -24.9169C506.614 -23.0991 509.944 -23.54 511.67 -25.9016C513.396 -28.2633 512.864 -31.6514 510.482 -33.4692Z" fill="#FF7381"/>
<path d="M522.984 -50.5738C520.602 -52.3916 517.272 -51.9507 515.546 -49.5891C513.82 -47.2274 514.351 -43.8393 516.733 -42.0215C519.115 -40.2037 522.446 -40.6445 524.172 -43.0062C525.898 -45.3679 525.366 -48.756 522.984 -50.5738Z" fill="#FF7381"/>
<path d="M393.216 90.2017C390.834 88.3839 387.504 88.8248 385.778 91.1864C384.052 93.5481 384.584 96.9362 386.966 98.754C389.348 100.572 392.678 100.131 394.404 97.7693C396.13 95.4076 395.598 92.0195 393.216 90.2017Z" fill="#FF7381"/>
<path d="M405.718 73.0971C403.336 71.2793 400.006 71.7202 398.28 74.0818C396.554 76.4435 397.085 79.8316 399.467 81.6494C401.849 83.4672 405.18 83.0263 406.906 80.6647C408.632 78.303 408.1 74.9149 405.718 73.0971Z" fill="#FF7381"/>
<path d="M418.22 55.9926C415.838 54.1748 412.508 54.6156 410.781 56.9773C409.055 59.3389 409.587 62.727 411.969 64.5448C414.351 66.3626 417.681 65.9218 419.408 63.5601C421.134 61.1985 420.602 57.8104 418.22 55.9926Z" fill="#FF7381"/>
<path d="M430.722 38.888C428.34 37.0702 425.009 37.5111 423.283 39.8727C421.557 42.2343 422.089 45.6225 424.471 47.4403C426.853 49.2581 430.183 48.8172 431.909 46.4555C433.635 44.0939 433.104 40.7058 430.722 38.888Z" fill="#FF7381"/>
<path d="M443.223 21.7834C440.841 19.9656 437.511 20.4065 435.785 22.7681C434.059 25.1298 434.59 28.5179 436.972 30.3357C439.355 32.1535 442.685 31.7126 444.411 29.351C446.137 26.9893 445.605 23.6012 443.223 21.7834Z" fill="#FF7381"/>
<path d="M455.725 4.67884C453.343 2.86103 450.013 3.3019 448.287 5.66357C446.56 8.02521 447.092 11.4133 449.474 13.2311C451.856 15.0489 455.187 14.6081 456.913 12.2464C458.639 9.88475 458.107 6.49664 455.725 4.67884Z" fill="#FF7381"/>
<path d="M468.227 -12.4258C465.845 -14.2436 462.514 -13.8027 460.788 -11.441C459.062 -9.07938 459.594 -5.69122 461.976 -3.87342C464.358 -2.05562 467.688 -2.49654 469.414 -4.85818C471.141 -7.21984 470.609 -10.608 468.227 -12.4258Z" fill="#FF7381"/>
<path d="M480.729 -29.5303C478.347 -31.3481 475.016 -30.9072 473.29 -28.5456C471.564 -26.1839 472.096 -22.7958 474.478 -20.978C476.86 -19.1602 480.19 -19.6011 481.916 -21.9627C483.642 -24.3244 483.111 -27.7125 480.729 -29.5303Z" fill="#FF7381"/>
<path d="M493.23 -46.6349C490.848 -48.4527 487.518 -48.0118 485.792 -45.6502C484.066 -43.2885 484.597 -39.9004 486.979 -38.0826C489.361 -36.2648 492.692 -36.7057 494.418 -39.0673C496.144 -41.429 495.612 -44.8171 493.23 -46.6349Z" fill="#FF7381"/>
<path d="M505.732 -63.7395C503.35 -65.5573 500.02 -65.1164 498.294 -62.7547C496.567 -60.3931 497.099 -57.005 499.481 -55.1872C501.863 -53.3694 505.193 -53.8102 506.92 -56.1719C508.646 -58.5335 508.114 -61.9217 505.732 -63.7395Z" fill="#FF7381"/>
<path d="M375.964 77.036C373.582 75.2182 370.252 75.6591 368.526 78.0207C366.8 80.3824 367.331 83.7705 369.713 85.5883C372.096 87.4061 375.426 86.9652 377.152 84.6036C378.878 82.2419 378.346 78.8538 375.964 77.036Z" fill="#FF7381"/>
<path d="M388.466 59.9314C386.084 58.1136 382.754 58.5545 381.028 60.9162C379.301 63.2778 379.833 66.6659 382.215 68.4837C384.597 70.3015 387.928 69.8607 389.654 67.499C391.38 65.1374 390.848 61.7492 388.466 59.9314Z" fill="#FF7381"/>
<path d="M400.968 42.8269C398.586 41.0091 395.255 41.4499 393.529 43.8116C391.803 46.1732 392.335 49.5613 394.717 51.3791C397.099 53.1969 400.429 52.7561 402.155 50.3944C403.882 48.0328 403.35 44.6447 400.968 42.8269Z" fill="#FF7381"/>
<path d="M413.47 25.7223C411.088 23.9045 407.757 24.3454 406.031 26.707C404.305 29.0686 404.837 32.4568 407.219 34.2746C409.601 36.0924 412.931 35.6515 414.657 33.2899C416.383 30.9282 415.852 27.5401 413.47 25.7223Z" fill="#FF7381"/>
<path d="M425.971 8.61771C423.589 6.79991 420.259 7.2408 418.533 9.60244C416.807 11.9641 417.338 15.3522 419.72 17.17C422.102 18.9878 425.433 18.547 427.159 16.1853C428.885 13.8236 428.353 10.4355 425.971 8.61771Z" fill="#FF7381"/>
<path d="M438.473 -8.48686C436.091 -10.3047 432.761 -9.86379 431.034 -7.50212C429.308 -5.14048 429.84 -1.75238 432.222 0.0654257C434.604 1.88323 437.934 1.44236 439.661 -0.919277C441.387 -3.28094 440.855 -6.66905 438.473 -8.48686Z" fill="#FF7381"/>
<path d="M450.975 -25.5914C448.593 -27.4093 445.262 -26.9684 443.536 -24.6067C441.81 -22.2451 442.342 -18.8569 444.724 -17.0391C447.106 -15.2213 450.436 -15.6622 452.162 -18.0239C453.888 -20.3855 453.357 -23.7736 450.975 -25.5914Z" fill="#FF7381"/>
<path d="M463.476 -42.696C461.094 -44.5138 457.764 -44.0729 456.038 -41.7113C454.312 -39.3496 454.844 -35.9615 457.226 -34.1437C459.608 -32.3259 462.938 -32.7668 464.664 -35.1284C466.39 -37.4901 465.858 -40.8782 463.476 -42.696Z" fill="#FF7381"/>
<path d="M475.978 -59.8006C473.596 -61.6184 470.266 -61.1775 468.54 -58.8159C466.814 -56.4542 467.345 -53.0661 469.727 -51.2483C472.109 -49.4305 475.44 -49.8714 477.166 -52.233C478.892 -54.5947 478.36 -57.9828 475.978 -59.8006Z" fill="#FF7381"/>
<path d="M488.48 -76.9052C486.098 -78.723 482.768 -78.2821 481.041 -75.9204C479.315 -73.5588 479.847 -70.1707 482.229 -68.3529C484.611 -66.5351 487.941 -66.9759 489.667 -69.3376C491.394 -71.6992 490.862 -75.0874 488.48 -76.9052Z" fill="#FF7381"/>
<path d="M358.712 63.8703C356.33 62.0525 353 62.4934 351.274 64.855C349.548 67.2167 350.079 70.6048 352.461 72.4226C354.843 74.2404 358.174 73.7995 359.9 71.4379C361.626 69.0762 361.094 65.6881 358.712 63.8703Z" fill="#FF7381"/>
<path d="M371.214 46.7658C368.832 44.948 365.502 45.3888 363.775 47.7505C362.049 50.1121 362.581 53.5002 364.963 55.318C367.345 57.1358 370.675 56.695 372.402 54.3333C374.128 51.9717 373.596 48.5836 371.214 46.7658Z" fill="#FF7381"/>
<path d="M383.716 29.6612C381.334 27.8434 378.003 28.2842 376.277 30.6459C374.551 33.0075 375.083 36.3957 377.465 38.2135C379.847 40.0313 383.177 39.5904 384.903 37.2287C386.629 34.8671 386.098 31.479 383.716 29.6612Z" fill="#FF7381"/>
<path d="M396.217 12.5566C393.835 10.7388 390.505 11.1797 388.779 13.5413C387.053 15.903 387.585 19.2911 389.967 21.1089C392.349 22.9267 395.679 22.4858 397.405 20.1242C399.131 17.7625 398.599 14.3744 396.217 12.5566Z" fill="#FF7381"/>
<path d="M408.719 -4.54798C406.337 -6.36578 403.007 -5.92489 401.281 -3.56325C399.555 -1.20158 400.086 2.18652 402.468 4.00433C404.85 5.82213 408.181 5.38126 409.907 3.01959C411.633 0.657953 411.101 -2.73018 408.719 -4.54798Z" fill="#FF7381"/>
<path d="M421.221 -21.6525C418.839 -23.4703 415.509 -23.0295 413.782 -20.6678C412.056 -18.3062 412.588 -14.9181 414.97 -13.1003C417.352 -11.2825 420.682 -11.7233 422.408 -14.085C424.135 -16.4466 423.603 -19.8347 421.221 -21.6525Z" fill="#FF7381"/>
<path d="M433.723 -38.7571C431.341 -40.5749 428.01 -40.1341 426.284 -37.7724C424.558 -35.4108 425.09 -32.0226 427.472 -30.2048C429.854 -28.387 433.184 -28.8279 434.91 -31.1896C436.636 -33.5512 436.105 -36.9393 433.723 -38.7571Z" fill="#FF7381"/>
<path d="M446.224 -55.8617C443.842 -57.6795 440.512 -57.2386 438.786 -54.877C437.06 -52.5153 437.591 -49.1272 439.973 -47.3094C442.355 -45.4916 445.686 -45.9325 447.412 -48.2941C449.138 -50.6558 448.606 -54.0439 446.224 -55.8617Z" fill="#FF7381"/>
<path d="M458.726 -72.9662C456.344 -74.784 453.014 -74.3432 451.288 -71.9816C449.561 -69.6199 450.093 -66.2318 452.475 -64.414C454.857 -62.5962 458.188 -63.0371 459.914 -65.3987C461.64 -67.7604 461.108 -71.1484 458.726 -72.9662Z" fill="#FF7381"/>
<path d="M471.228 -90.0709C468.846 -91.8887 465.515 -91.4478 463.789 -89.0861C462.063 -86.7245 462.595 -83.3364 464.977 -81.5186C467.359 -79.7007 470.689 -80.1416 472.415 -82.5033C474.141 -84.8649 473.61 -88.2531 471.228 -90.0709Z" fill="#FF7381"/>
<path d="M341.46 50.7046C339.078 48.8868 335.748 49.3277 334.022 51.6893C332.296 54.051 332.827 57.4391 335.209 59.2569C337.591 61.0747 340.922 60.6338 342.648 58.2722C344.374 55.9105 343.842 52.5224 341.46 50.7046Z" fill="#FF7381"/>
<path d="M353.962 33.6001C351.58 31.7823 348.249 32.2231 346.523 34.5848C344.797 36.9464 345.329 40.3345 347.711 42.1523C350.093 43.9702 353.423 43.5293 355.149 41.1676C356.876 38.806 356.344 35.4179 353.962 33.6001Z" fill="#FF7381"/>
<path d="M366.464 16.4955C364.082 14.6777 360.751 15.1185 359.025 17.4802C357.299 19.8418 357.831 23.23 360.213 25.0478C362.595 26.8656 365.925 26.4247 367.651 24.063C369.377 21.7014 368.846 18.3133 366.464 16.4955Z" fill="#FF7381"/>
<path d="M378.965 -0.609105C376.583 -2.42691 373.253 -1.98602 371.527 0.375623C369.801 2.73726 370.332 6.1254 372.714 7.9432C375.096 9.76101 378.427 9.32012 380.153 6.95848C381.879 4.59683 381.347 1.2087 378.965 -0.609105Z" fill="#FF7381"/>
<path d="M391.467 -17.7137C389.085 -19.5315 385.755 -19.0906 384.029 -16.7289C382.302 -14.3673 382.834 -10.9792 385.216 -9.16136C387.598 -7.34356 390.928 -7.78442 392.655 -10.1461C394.381 -12.5077 393.849 -15.8959 391.467 -17.7137Z" fill="#FF7381"/>
<path d="M403.969 -34.8182C401.587 -36.636 398.256 -36.1952 396.53 -33.8335C394.804 -31.4719 395.336 -28.0838 397.718 -26.266C400.1 -24.4481 403.43 -24.889 405.156 -27.2507C406.882 -29.6123 406.351 -33.0004 403.969 -34.8182Z" fill="#FF7381"/>
<path d="M416.47 -51.9228C414.088 -53.7406 410.758 -53.2998 409.032 -50.9381C407.306 -48.5765 407.838 -45.1883 410.22 -43.3705C412.602 -41.5527 415.932 -41.9936 417.658 -44.3552C419.384 -46.7169 418.852 -50.105 416.47 -51.9228Z" fill="#FF7381"/>
<path d="M428.972 -69.0274C426.59 -70.8452 423.26 -70.4043 421.534 -68.0427C419.808 -65.681 420.339 -62.2929 422.721 -60.4751C425.103 -58.6573 428.434 -59.0982 430.16 -61.4598C431.886 -63.8215 431.354 -67.2096 428.972 -69.0274Z" fill="#FF7381"/>
<path d="M441.474 -86.1319C439.092 -87.9497 435.762 -87.5089 434.035 -85.1473C432.309 -82.7856 432.841 -79.3975 435.223 -77.5797C437.605 -75.7619 440.935 -76.2028 442.662 -78.5644C444.388 -80.926 443.856 -84.3141 441.474 -86.1319Z" fill="#FF7381"/>
<path d="M453.976 -103.237C451.594 -105.054 448.263 -104.613 446.537 -102.252C444.811 -99.8902 445.343 -96.502 447.725 -94.6842C450.107 -92.8664 453.437 -93.3073 455.163 -95.669C456.889 -98.0306 456.358 -101.419 453.976 -103.237Z" fill="#FF7381"/>
<path d="M324.208 37.539C321.826 35.7212 318.496 36.162 316.77 38.5237C315.043 40.8853 315.575 44.2734 317.957 46.0912C320.339 47.909 323.669 47.4681 325.396 45.1065C327.122 42.7449 326.59 39.3568 324.208 37.539Z" fill="#FF7381"/>
<path d="M336.71 20.4344C334.328 18.6166 330.997 19.0574 329.271 21.4191C327.545 23.7807 328.077 27.1689 330.459 28.9867C332.841 30.8045 336.171 30.3636 337.897 28.0019C339.623 25.6403 339.092 22.2522 336.71 20.4344Z" fill="#FF7381"/>
<path d="M349.211 3.3298C346.829 1.512 343.499 1.95286 341.773 4.3145C340.047 6.67615 340.579 10.0643 342.961 11.8821C345.343 13.6999 348.673 13.259 350.399 10.8973C352.125 8.53571 351.593 5.1476 349.211 3.3298Z" fill="#FF7381"/>
<path d="M361.713 -13.7748C359.331 -15.5926 356.001 -15.1517 354.275 -12.7901C352.549 -10.4284 353.08 -7.04029 355.462 -5.22249C357.844 -3.40468 361.175 -3.84558 362.901 -6.20722C364.627 -8.56886 364.095 -11.957 361.713 -13.7748Z" fill="#FF7381"/>
<path d="M374.215 -30.8794C371.833 -32.6972 368.503 -32.2563 366.776 -29.8946C365.05 -27.533 365.582 -24.1449 367.964 -22.3271C370.346 -20.5092 373.676 -20.9501 375.402 -23.3118C377.129 -25.6734 376.597 -29.0616 374.215 -30.8794Z" fill="#FF7381"/>
<path d="M386.717 -47.9839C384.335 -49.8017 381.004 -49.3609 379.278 -46.9992C377.552 -44.6376 378.084 -41.2494 380.466 -39.4316C382.848 -37.6138 386.178 -38.0547 387.904 -40.4163C389.63 -42.778 389.099 -46.1661 386.717 -47.9839Z" fill="#FF7381"/>
<path d="M399.218 -65.0885C396.836 -66.9063 393.506 -66.4655 391.78 -64.1038C390.054 -61.7421 390.585 -58.354 392.967 -56.5362C395.349 -54.7184 398.68 -55.1593 400.406 -57.5209C402.132 -59.8826 401.6 -63.2707 399.218 -65.0885Z" fill="#FF7381"/>
<path d="M411.72 -82.1931C409.338 -84.0109 406.008 -83.57 404.282 -81.2084C402.555 -78.8467 403.087 -75.4586 405.469 -73.6408C407.851 -71.823 411.182 -72.2639 412.908 -74.6255C414.634 -76.9871 414.102 -80.3753 411.72 -82.1931Z" fill="#FF7381"/>
<path d="M424.222 -99.2976C421.84 -101.115 418.509 -100.675 416.783 -98.3129C415.057 -95.9513 415.589 -92.5632 417.971 -90.7454C420.353 -88.9276 423.683 -89.3685 425.409 -91.7301C427.136 -94.0917 426.604 -97.4798 424.222 -99.2976Z" fill="#FF7381"/>
<path d="M436.724 -116.402C434.342 -118.22 431.011 -117.779 429.285 -115.418C427.559 -113.056 428.091 -109.668 430.473 -107.85C432.855 -106.032 436.185 -106.473 437.911 -108.835C439.637 -111.196 439.106 -114.584 436.724 -116.402Z" fill="#FF7381"/>
<path d="M306.956 24.3733C304.574 22.5555 301.244 22.9963 299.517 25.358C297.791 27.7196 298.323 31.1077 300.705 32.9255C303.087 34.7433 306.417 34.3024 308.143 31.9408C309.87 29.5792 309.338 26.1911 306.956 24.3733Z" fill="#FF7381"/>
<path d="M319.458 7.26867C317.076 5.45087 313.745 5.89174 312.019 8.25339C310.293 10.615 310.825 14.0032 313.207 15.821C315.589 17.6388 318.919 17.1979 320.645 14.8362C322.371 12.4746 321.84 9.08648 319.458 7.26867Z" fill="#FF7381"/>
<path d="M331.959 -9.8359C329.577 -11.6537 326.247 -11.2128 324.521 -8.85119C322.795 -6.48954 323.326 -3.10142 325.708 -1.28362C328.09 0.534188 331.421 0.093305 333.147 -2.26835C334.873 -4.62999 334.341 -8.01809 331.959 -9.8359Z" fill="#FF7381"/>
<path d="M344.461 -26.9405C342.079 -28.7583 338.749 -28.3174 337.023 -25.9558C335.296 -23.5941 335.828 -20.206 338.21 -18.3882C340.592 -16.5704 343.923 -17.0113 345.649 -19.3729C347.375 -21.7346 346.843 -25.1227 344.461 -26.9405Z" fill="#FF7381"/>
<path d="M356.963 -44.0451C354.581 -45.8629 351.25 -45.422 349.524 -43.0603C347.798 -40.6987 348.33 -37.3106 350.712 -35.4928C353.094 -33.6749 356.424 -34.1158 358.15 -36.4775C359.876 -38.8391 359.345 -42.2272 356.963 -44.0451Z" fill="#FF7381"/>
<path d="M369.464 -61.1496C367.082 -62.9674 363.752 -62.5266 362.026 -60.1649C360.3 -57.8032 360.832 -54.4151 363.214 -52.5973C365.596 -50.7795 368.926 -51.2204 370.652 -53.582C372.378 -55.9437 371.847 -59.3318 369.464 -61.1496Z" fill="#FF7381"/>
<path d="M381.966 -78.2542C379.584 -80.072 376.254 -79.6311 374.528 -77.2695C372.802 -74.9078 373.333 -71.5197 375.715 -69.7019C378.097 -67.8841 381.428 -68.325 383.154 -70.6866C384.88 -73.0483 384.348 -76.4364 381.966 -78.2542Z" fill="#FF7381"/>
<path d="M394.468 -95.3588C392.086 -97.1766 388.756 -96.7357 387.029 -94.374C385.303 -92.0124 385.835 -88.6243 388.217 -86.8065C390.599 -84.9887 393.929 -85.4296 395.656 -87.7912C397.382 -90.1528 396.85 -93.541 394.468 -95.3588Z" fill="#FF7381"/>
<path d="M406.97 -112.463C404.588 -114.281 401.257 -113.84 399.531 -111.479C397.805 -109.117 398.337 -105.729 400.719 -103.911C403.101 -102.093 406.431 -102.534 408.157 -104.896C409.883 -107.257 409.352 -110.646 406.97 -112.463Z" fill="#FF7381"/>
<path d="M419.471 -129.568C417.089 -131.386 413.759 -130.945 412.033 -128.583C410.307 -126.222 410.838 -122.833 413.221 -121.016C415.603 -119.198 418.933 -119.639 420.659 -122C422.385 -124.362 421.853 -127.75 419.471 -129.568Z" fill="#FF7381"/>
<path d="M289.704 11.2076C287.322 9.38977 283.991 9.83062 282.265 12.1923C280.539 14.5539 281.071 17.942 283.453 19.7598C285.835 21.5776 289.165 21.1368 290.891 18.7751C292.617 16.4135 292.086 13.0254 289.704 11.2076Z" fill="#FF7381"/>
<path d="M302.205 -5.89701C299.823 -7.71481 296.493 -7.27394 294.767 -4.9123C293.041 -2.55065 293.573 0.837477 295.955 2.65528C298.337 4.47308 301.667 4.03219 303.393 1.67054C305.119 -0.6911 304.587 -4.0792 302.205 -5.89701Z" fill="#FF7381"/>
<path d="M314.707 -23.0016C312.325 -24.8194 308.995 -24.3785 307.269 -22.0169C305.543 -19.6552 306.074 -16.2671 308.456 -14.4493C310.838 -12.6315 314.169 -13.0724 315.895 -15.434C317.621 -17.7957 317.089 -21.1838 314.707 -23.0016Z" fill="#FF7381"/>
<path d="M327.209 -40.1062C324.827 -41.924 321.497 -41.4831 319.77 -39.1214C318.044 -36.7598 318.576 -33.3717 320.958 -31.5539C323.34 -29.7361 326.67 -30.177 328.397 -32.5386C330.123 -34.9002 329.591 -38.2884 327.209 -40.1062Z" fill="#FF7381"/>
<path d="M339.711 -57.2107C337.329 -59.0285 333.998 -58.5877 332.272 -56.226C330.546 -53.8643 331.078 -50.4762 333.46 -48.6584C335.842 -46.8406 339.172 -47.2815 340.898 -49.6432C342.624 -52.0048 342.093 -55.3929 339.711 -57.2107Z" fill="#FF7381"/>
<path d="M352.212 -74.3153C349.83 -76.1331 346.5 -75.6922 344.774 -73.3306C343.048 -70.9689 343.58 -67.5808 345.962 -65.763C348.344 -63.9452 351.674 -64.3861 353.4 -66.7477C355.126 -69.1094 354.594 -72.4975 352.212 -74.3153Z" fill="#FF7381"/>
<path d="M364.714 -91.4199C362.332 -93.2377 359.002 -92.7968 357.276 -90.4352C355.55 -88.0735 356.081 -84.6854 358.463 -82.8676C360.845 -81.0498 364.176 -81.4907 365.902 -83.8523C367.628 -86.214 367.096 -89.6021 364.714 -91.4199Z" fill="#FF7381"/>
<path d="M377.216 -108.524C374.834 -110.342 371.503 -109.901 369.777 -107.54C368.051 -105.178 368.583 -101.79 370.965 -99.9722C373.347 -98.1544 376.677 -98.5952 378.403 -100.957C380.13 -103.319 379.598 -106.707 377.216 -108.524Z" fill="#FF7381"/>
<path d="M389.718 -125.629C387.336 -127.447 384.005 -127.006 382.279 -124.644C380.553 -122.283 381.085 -118.895 383.467 -117.077C385.849 -115.259 389.179 -115.7 390.905 -118.061C392.631 -120.423 392.1 -123.811 389.718 -125.629Z" fill="#FF7381"/>
<path d="M402.219 -142.734C399.837 -144.551 396.507 -144.111 394.781 -141.749C393.055 -139.387 393.586 -135.999 395.968 -134.181C398.35 -132.364 401.681 -132.804 403.407 -135.166C405.133 -137.528 404.601 -140.916 402.219 -142.734Z" fill="#FF7381"/>
<path d="M272.452 -1.95812C270.07 -3.77593 266.739 -3.33507 265.013 -0.973413C263.287 1.38823 263.819 4.77633 266.201 6.59413C268.583 8.41193 271.913 7.97108 273.639 5.60944C275.365 3.24779 274.834 -0.140324 272.452 -1.95812Z" fill="#FF7381"/>
<path d="M284.953 -19.0627C282.571 -20.8805 279.241 -20.4396 277.515 -18.078C275.789 -15.7163 276.32 -12.3282 278.702 -10.5104C281.085 -8.69262 284.415 -9.13348 286.141 -11.4951C287.867 -13.8568 287.335 -17.2449 284.953 -19.0627Z" fill="#FF7381"/>
<path d="M297.455 -36.1673C295.073 -37.9851 291.743 -37.5442 290.017 -35.1826C288.291 -32.8209 288.822 -29.4328 291.204 -27.615C293.586 -25.7972 296.917 -26.2381 298.643 -28.5997C300.369 -30.9614 299.837 -34.3495 297.455 -36.1673Z" fill="#FF7381"/>
<path d="M309.957 -53.2719C307.575 -55.0897 304.244 -54.6488 302.518 -52.2871C300.792 -49.9255 301.324 -46.5374 303.706 -44.7196C306.088 -42.9018 309.418 -43.3426 311.144 -45.7043C312.871 -48.0659 312.339 -51.4541 309.957 -53.2719Z" fill="#FF7381"/>
<path d="M322.459 -70.3764C320.077 -72.1942 316.746 -71.7533 315.02 -69.3917C313.294 -67.03 313.826 -63.6419 316.208 -61.8241C318.59 -60.0063 321.92 -60.4472 323.646 -62.8088C325.372 -65.1705 324.841 -68.5586 322.459 -70.3764Z" fill="#FF7381"/>
<path d="M334.96 -87.481C332.578 -89.2988 329.248 -88.8579 327.522 -86.4963C325.796 -84.1346 326.327 -80.7465 328.709 -78.9287C331.091 -77.1109 334.422 -77.5518 336.148 -79.9134C337.874 -82.2751 337.342 -85.6632 334.96 -87.481Z" fill="#FF7381"/>
<path d="M347.462 -104.586C345.08 -106.403 341.75 -105.963 340.024 -103.601C338.297 -101.239 338.829 -97.8511 341.211 -96.0333C343.593 -94.2155 346.923 -94.6564 348.65 -97.018C350.376 -99.3797 349.844 -102.768 347.462 -104.586Z" fill="#FF7381"/>
<path d="M359.964 -121.69C357.582 -123.508 354.251 -123.067 352.525 -120.705C350.799 -118.344 351.331 -114.956 353.713 -113.138C356.095 -111.32 359.425 -111.761 361.151 -114.123C362.877 -116.484 362.346 -119.872 359.964 -121.69Z" fill="#FF7381"/>
<path d="M372.465 -138.795C370.083 -140.612 366.753 -140.172 365.027 -137.81C363.301 -135.448 363.833 -132.06 366.215 -130.242C368.597 -128.425 371.927 -128.866 373.653 -131.227C375.379 -133.589 374.847 -136.977 372.465 -138.795Z" fill="#FF7381"/>
<path d="M384.967 -155.899C382.585 -157.717 379.255 -157.276 377.529 -154.915C375.803 -152.553 376.334 -149.165 378.716 -147.347C381.098 -145.529 384.429 -145.97 386.155 -148.332C387.881 -150.693 387.349 -154.082 384.967 -155.899Z" fill="#FF7381"/>
<path d="M255.2 -15.1238C252.818 -16.9416 249.487 -16.5008 247.761 -14.1391C246.035 -11.7775 246.567 -8.38935 248.949 -6.57155C251.331 -4.75374 254.661 -5.19463 256.387 -7.55627C258.113 -9.91792 257.582 -13.306 255.2 -15.1238Z" fill="#FF7381"/>
<path d="M267.701 -32.2284C265.319 -34.0462 261.989 -33.6053 260.263 -31.2437C258.537 -28.882 259.068 -25.4939 261.45 -23.6761C263.832 -21.8583 267.163 -22.2992 268.889 -24.6608C270.615 -27.0225 270.083 -30.4106 267.701 -32.2284Z" fill="#FF7381"/>
<path d="M280.203 -49.333C277.821 -51.1508 274.491 -50.7099 272.764 -48.3483C271.038 -45.9866 271.57 -42.5985 273.952 -40.7807C276.334 -38.9629 279.664 -39.4038 281.391 -41.7654C283.117 -44.1271 282.585 -47.5152 280.203 -49.333Z" fill="#FF7381"/>
<path d="M292.705 -66.4375C290.323 -68.2554 286.992 -67.8145 285.266 -65.4528C283.54 -63.0912 284.072 -59.703 286.454 -57.8852C288.836 -56.0674 292.166 -56.5083 293.892 -58.87C295.618 -61.2316 295.087 -64.6197 292.705 -66.4375Z" fill="#FF7381"/>
<path d="M305.206 -83.5421C302.824 -85.3599 299.494 -84.919 297.768 -82.5574C296.042 -80.1957 296.574 -76.8076 298.956 -74.9898C301.338 -73.172 304.668 -73.6129 306.394 -75.9746C308.12 -78.3362 307.588 -81.7243 305.206 -83.5421Z" fill="#FF7381"/>
<path d="M317.708 -100.647C315.326 -102.464 311.996 -102.024 310.27 -99.662C308.544 -97.3003 309.075 -93.9122 311.457 -92.0944C313.839 -90.2766 317.17 -90.7175 318.896 -93.0791C320.622 -95.4408 320.09 -98.8289 317.708 -100.647Z" fill="#FF7381"/>
<path d="M330.21 -117.751C327.828 -119.569 324.498 -119.128 322.771 -116.767C321.045 -114.405 321.577 -111.017 323.959 -109.199C326.341 -107.381 329.671 -107.822 331.397 -110.184C333.124 -112.545 332.592 -115.933 330.21 -117.751Z" fill="#FF7381"/>
<path d="M342.712 -134.856C340.33 -136.674 336.999 -136.233 335.273 -133.871C333.547 -131.509 334.079 -128.121 336.461 -126.304C338.843 -124.486 342.173 -124.927 343.899 -127.288C345.625 -129.65 345.094 -133.038 342.712 -134.856Z" fill="#FF7381"/>
<path d="M355.213 -151.96C352.831 -153.778 349.501 -153.337 347.775 -150.976C346.049 -148.614 346.58 -145.226 348.962 -143.408C351.344 -141.59 354.675 -142.031 356.401 -144.393C358.127 -146.755 357.595 -150.143 355.213 -151.96Z" fill="#FF7381"/>
<path d="M367.715 -169.065C365.333 -170.883 362.003 -170.442 360.277 -168.08C358.55 -165.719 359.082 -162.33 361.464 -160.513C363.846 -158.695 367.176 -159.136 368.903 -161.497C370.629 -163.859 370.097 -167.247 367.715 -169.065Z" fill="#FF7381"/>
<path d="M255.2 -15.1238C252.818 -16.9416 249.487 -16.5008 247.761 -14.1391C246.035 -11.7775 246.567 -8.38935 248.949 -6.57155C251.331 -4.75374 254.661 -5.19463 256.387 -7.55627C258.113 -9.91792 257.582 -13.306 255.2 -15.1238Z" fill="#FF7381"/>
<path d="M267.701 -32.2284C265.319 -34.0462 261.989 -33.6053 260.263 -31.2437C258.537 -28.882 259.068 -25.4939 261.45 -23.6761C263.832 -21.8583 267.163 -22.2992 268.889 -24.6608C270.615 -27.0225 270.083 -30.4106 267.701 -32.2284Z" fill="#FF7381"/>
<path d="M280.203 -49.333C277.821 -51.1508 274.491 -50.7099 272.764 -48.3483C271.038 -45.9866 271.57 -42.5985 273.952 -40.7807C276.334 -38.9629 279.664 -39.4038 281.391 -41.7654C283.117 -44.1271 282.585 -47.5152 280.203 -49.333Z" fill="#FF7381"/>
<path d="M292.705 -66.4375C290.323 -68.2554 286.992 -67.8145 285.266 -65.4528C283.54 -63.0912 284.072 -59.703 286.454 -57.8852C288.836 -56.0674 292.166 -56.5083 293.892 -58.87C295.618 -61.2316 295.087 -64.6197 292.705 -66.4375Z" fill="#FF7381"/>
<path d="M305.206 -83.5421C302.824 -85.3599 299.494 -84.919 297.768 -82.5574C296.042 -80.1957 296.574 -76.8076 298.956 -74.9898C301.338 -73.172 304.668 -73.6129 306.394 -75.9746C308.12 -78.3362 307.588 -81.7243 305.206 -83.5421Z" fill="#FF7381"/>
<path d="M317.708 -100.647C315.326 -102.464 311.996 -102.024 310.27 -99.662C308.544 -97.3003 309.075 -93.9122 311.457 -92.0944C313.839 -90.2766 317.17 -90.7175 318.896 -93.0791C320.622 -95.4408 320.09 -98.8289 317.708 -100.647Z" fill="#FF7381"/>
<path d="M330.21 -117.751C327.828 -119.569 324.498 -119.128 322.771 -116.767C321.045 -114.405 321.577 -111.017 323.959 -109.199C326.341 -107.381 329.671 -107.822 331.397 -110.184C333.124 -112.545 332.592 -115.933 330.21 -117.751Z" fill="#FF7381"/>
<path d="M342.712 -134.856C340.33 -136.674 336.999 -136.233 335.273 -133.871C333.547 -131.509 334.079 -128.121 336.461 -126.304C338.843 -124.486 342.173 -124.927 343.899 -127.288C345.625 -129.65 345.094 -133.038 342.712 -134.856Z" fill="#FF7381"/>
<path d="M355.213 -151.96C352.831 -153.778 349.501 -153.337 347.775 -150.976C346.049 -148.614 346.58 -145.226 348.962 -143.408C351.344 -141.59 354.675 -142.031 356.401 -144.393C358.127 -146.755 357.595 -150.143 355.213 -151.96Z" fill="#FF7381"/>
<path d="M367.715 -169.065C365.333 -170.883 362.003 -170.442 360.277 -168.08C358.55 -165.719 359.082 -162.33 361.464 -160.513C363.846 -158.695 367.176 -159.136 368.903 -161.497C370.629 -163.859 370.097 -167.247 367.715 -169.065Z" fill="#FF7381"/>
<path d="M237.947 -28.2895C235.565 -30.1073 232.235 -29.6664 230.509 -27.3048C228.783 -24.9431 229.315 -21.5551 231.697 -19.7373C234.079 -17.9195 237.409 -18.3603 239.135 -20.7219C240.861 -23.0836 240.329 -26.4717 237.947 -28.2895Z" fill="#FF7381"/>
<path d="M250.449 -45.3941C248.067 -47.2119 244.737 -46.771 243.011 -44.4094C241.285 -42.0477 241.816 -38.6596 244.198 -36.8418C246.58 -35.024 249.911 -35.4649 251.637 -37.8265C253.363 -40.1882 252.831 -43.5763 250.449 -45.3941Z" fill="#FF7381"/>
<path d="M262.951 -62.4987C260.569 -64.3165 257.239 -63.8756 255.512 -61.5139C253.786 -59.1523 254.318 -55.7642 256.7 -53.9464C259.082 -52.1286 262.412 -52.5694 264.138 -54.9311C265.865 -57.2927 265.333 -60.6809 262.951 -62.4987Z" fill="#FF7381"/>
<path d="M275.453 -79.6033C273.071 -81.4211 269.74 -80.9802 268.014 -78.6185C266.288 -76.2569 266.82 -72.8687 269.202 -71.0509C271.584 -69.2331 274.914 -69.674 276.64 -72.0357C278.366 -74.3973 277.835 -77.7855 275.453 -79.6033Z" fill="#FF7381"/>
<path d="M287.954 -96.7078C285.572 -98.5256 282.242 -98.0847 280.516 -95.7231C278.79 -93.3614 279.321 -89.9733 281.703 -88.1555C284.085 -86.3377 287.416 -86.7786 289.142 -89.1402C290.868 -91.5019 290.336 -94.89 287.954 -96.7078Z" fill="#FF7381"/>
<path d="M300.456 -113.812C298.074 -115.63 294.744 -115.189 293.018 -112.828C291.291 -110.466 291.823 -107.078 294.205 -105.26C296.587 -103.442 299.917 -103.883 301.644 -106.245C303.37 -108.606 302.838 -111.995 300.456 -113.812Z" fill="#FF7381"/>
<path d="M312.958 -130.917C310.576 -132.735 307.245 -132.294 305.519 -129.932C303.793 -127.571 304.325 -124.182 306.707 -122.365C309.089 -120.547 312.419 -120.988 314.145 -123.349C315.871 -125.711 315.34 -129.099 312.958 -130.917Z" fill="#FF7381"/>
<path d="M325.459 -148.022C323.077 -149.839 319.747 -149.398 318.021 -147.037C316.295 -144.675 316.827 -141.287 319.209 -139.469C321.591 -137.651 324.921 -138.092 326.647 -140.454C328.373 -142.816 327.841 -146.204 325.459 -148.022Z" fill="#FF7381"/>
<path d="M337.961 -165.126C335.579 -166.944 332.249 -166.503 330.523 -164.141C328.797 -161.78 329.328 -158.392 331.71 -156.574C334.092 -154.756 337.423 -155.197 339.149 -157.559C340.875 -159.92 340.343 -163.308 337.961 -165.126Z" fill="#FF7381"/>
<path d="M350.463 -182.231C348.081 -184.048 344.751 -183.608 343.024 -181.246C341.298 -178.884 341.83 -175.496 344.212 -173.678C346.594 -171.861 349.924 -172.301 351.651 -174.663C353.377 -177.025 352.845 -180.413 350.463 -182.231Z" fill="#FF7381"/>
<path d="M220.695 -41.4552C218.313 -43.273 214.983 -42.8321 213.257 -40.4705C211.531 -38.1089 212.062 -34.7207 214.444 -32.9029C216.826 -31.0851 220.157 -31.526 221.883 -33.8876C223.609 -36.2493 223.077 -39.6374 220.695 -41.4552Z" fill="#FF7381"/>
<path d="M233.197 -58.5598C230.815 -60.3776 227.485 -59.9367 225.759 -57.5751C224.032 -55.2134 224.564 -51.8253 226.946 -50.0075C229.328 -48.1897 232.658 -48.6306 234.385 -50.9922C236.111 -53.3539 235.579 -56.742 233.197 -58.5598Z" fill="#FF7381"/>
<path d="M245.699 -75.6643C243.317 -77.4821 239.986 -77.0413 238.26 -74.6797C236.534 -72.318 237.066 -68.9299 239.448 -67.1121C241.83 -65.2943 245.16 -65.7351 246.886 -68.0968C248.612 -70.4584 248.081 -73.8465 245.699 -75.6643Z" fill="#FF7381"/>
<path d="M258.2 -92.7689C255.818 -94.5867 252.488 -94.1459 250.762 -91.7842C249.036 -89.4226 249.568 -86.0344 251.95 -84.2166C254.332 -82.3988 257.662 -82.8397 259.388 -85.2014C261.114 -87.563 260.583 -90.9511 258.2 -92.7689Z" fill="#FF7381"/>
<path d="M270.702 -109.873C268.32 -111.691 264.99 -111.25 263.264 -108.889C261.538 -106.527 262.069 -103.139 264.451 -101.321C266.833 -99.5034 270.164 -99.9443 271.89 -102.306C273.616 -104.668 273.084 -108.056 270.702 -109.873Z" fill="#FF7381"/>
<path d="M283.204 -126.978C280.822 -128.796 277.492 -128.355 275.765 -125.993C274.039 -123.632 274.571 -120.244 276.953 -118.426C279.335 -116.608 282.665 -117.049 284.391 -119.41C286.118 -121.772 285.586 -125.16 283.204 -126.978Z" fill="#FF7381"/>
<path d="M295.706 -144.083C293.324 -145.9 289.993 -145.46 288.267 -143.098C286.541 -140.736 287.073 -137.348 289.455 -135.53C291.837 -133.713 295.167 -134.153 296.893 -136.515C298.619 -138.877 298.088 -142.265 295.706 -144.083Z" fill="#FF7381"/>
<path d="M308.207 -161.187C305.825 -163.005 302.495 -162.564 300.769 -160.203C299.043 -157.841 299.575 -154.453 301.957 -152.635C304.339 -150.817 307.669 -151.258 309.395 -153.62C311.121 -155.981 310.589 -159.369 308.207 -161.187Z" fill="#FF7381"/>
<path d="M320.709 -178.292C318.327 -180.11 314.997 -179.669 313.271 -177.307C311.544 -174.945 312.076 -171.557 314.458 -169.739C316.84 -167.922 320.171 -168.363 321.897 -170.724C323.623 -173.086 323.091 -176.474 320.709 -178.292Z" fill="#FF7381"/>
<path d="M333.211 -195.396C330.829 -197.214 327.498 -196.773 325.772 -194.412C324.046 -192.05 324.578 -188.662 326.96 -186.844C329.342 -185.026 332.672 -185.467 334.398 -187.829C336.125 -190.19 335.593 -193.579 333.211 -195.396Z" fill="#FF7381"/>
<path d="M203.443 -54.6209C201.061 -56.4387 197.731 -55.9978 196.005 -53.6362C194.279 -51.2746 194.81 -47.8864 197.192 -46.0686C199.574 -44.2508 202.905 -44.6917 204.631 -47.0533C206.357 -49.415 205.825 -52.8031 203.443 -54.6209Z" fill="#FF7381"/>
<path d="M215.945 -71.7255C213.563 -73.5433 210.233 -73.1024 208.506 -70.7408C206.78 -68.3791 207.312 -64.991 209.694 -63.1732C212.076 -61.3554 215.406 -61.7963 217.132 -64.1579C218.859 -66.5196 218.327 -69.9077 215.945 -71.7255Z" fill="#FF7381"/>
<path d="M228.447 -88.8301C226.065 -90.6479 222.734 -90.207 221.008 -87.8453C219.282 -85.4837 219.814 -82.0956 222.196 -80.2778C224.578 -78.4599 227.908 -78.9008 229.634 -81.2625C231.36 -83.6241 230.829 -87.0122 228.447 -88.8301Z" fill="#FF7381"/>
<path d="M240.948 -105.935C238.566 -107.752 235.236 -107.312 233.51 -104.95C231.784 -102.588 232.315 -99.2001 234.697 -97.3823C237.08 -95.5645 240.41 -96.0054 242.136 -98.3671C243.862 -100.729 243.33 -104.117 240.948 -105.935Z" fill="#FF7381"/>
<path d="M253.45 -123.039C251.068 -124.857 247.738 -124.416 246.012 -122.054C244.285 -119.693 244.817 -116.305 247.199 -114.487C249.581 -112.669 252.912 -113.11 254.638 -115.472C256.364 -117.833 255.832 -121.221 253.45 -123.039Z" fill="#FF7381"/>
<path d="M265.952 -140.144C263.57 -141.962 260.239 -141.521 258.513 -139.159C256.787 -136.797 257.319 -133.409 259.701 -131.591C262.083 -129.774 265.413 -130.215 267.139 -132.576C268.866 -134.938 268.334 -138.326 265.952 -140.144Z" fill="#FF7381"/>
<path d="M278.454 -157.248C276.071 -159.066 272.741 -158.625 271.015 -156.264C269.289 -153.902 269.821 -150.514 272.203 -148.696C274.585 -146.878 277.915 -147.319 279.641 -149.681C281.367 -152.042 280.836 -155.431 278.454 -157.248Z" fill="#FF7381"/>
<path d="M290.955 -174.353C288.573 -176.171 285.243 -175.73 283.517 -173.368C281.791 -171.007 282.322 -167.618 284.704 -165.801C287.086 -163.983 290.417 -164.424 292.143 -166.785C293.869 -169.147 293.337 -172.535 290.955 -174.353Z" fill="#FF7381"/>
<path d="M303.457 -191.457C301.075 -193.275 297.745 -192.834 296.018 -190.473C294.292 -188.111 294.824 -184.723 297.206 -182.905C299.588 -181.087 302.918 -181.528 304.645 -183.89C306.371 -186.252 305.839 -189.64 303.457 -191.457Z" fill="#FF7381"/>
<path d="M315.959 -208.562C313.577 -210.38 310.246 -209.939 308.52 -207.577C306.794 -205.216 307.326 -201.828 309.708 -200.01C312.09 -198.192 315.42 -198.633 317.146 -200.995C318.872 -203.356 318.341 -206.744 315.959 -208.562Z" fill="#FF7381"/>
<path d="M186.191 -67.7866C183.809 -69.6044 180.479 -69.1635 178.753 -66.8019C177.026 -64.4402 177.558 -61.0521 179.94 -59.2343C182.322 -57.4165 185.653 -57.8574 187.379 -60.219C189.105 -62.5807 188.573 -65.9688 186.191 -67.7866Z" fill="#FF7381"/>
<path d="M198.693 -84.8912C196.311 -86.709 192.98 -86.2681 191.254 -83.9064C189.528 -81.5448 190.06 -78.1567 192.442 -76.3389C194.824 -74.5211 198.154 -74.962 199.88 -77.3236C201.606 -79.6852 201.075 -83.0734 198.693 -84.8912Z" fill="#FF7381"/>
<path d="M211.194 -101.996C208.812 -103.814 205.482 -103.373 203.756 -101.011C202.03 -98.6494 202.562 -95.2613 204.944 -93.4435C207.326 -91.6257 210.656 -92.0665 212.382 -94.4282C214.108 -96.7898 213.577 -100.178 211.194 -101.996Z" fill="#FF7381"/>
<path d="M223.696 -119.1C221.314 -120.918 217.984 -120.477 216.258 -118.116C214.532 -115.754 215.063 -112.366 217.445 -110.548C219.827 -108.73 223.158 -109.171 224.884 -111.533C226.61 -113.894 226.078 -117.283 223.696 -119.1Z" fill="#FF7381"/>
<path d="M236.198 -136.205C233.816 -138.023 230.486 -137.582 228.759 -135.22C227.033 -132.858 227.565 -129.47 229.947 -127.653C232.329 -125.835 235.659 -126.276 237.386 -128.637C239.112 -130.999 238.58 -134.387 236.198 -136.205Z" fill="#FF7381"/>
<path d="M248.7 -153.309C246.318 -155.127 242.987 -154.686 241.261 -152.325C239.535 -149.963 240.067 -146.575 242.449 -144.757C244.831 -142.939 248.161 -143.38 249.887 -145.742C251.613 -148.104 251.082 -151.492 248.7 -153.309Z" fill="#FF7381"/>
<path d="M261.201 -170.414C258.819 -172.232 255.489 -171.791 253.763 -169.429C252.037 -167.068 252.568 -163.68 254.951 -161.862C257.333 -160.044 260.663 -160.485 262.389 -162.846C264.115 -165.208 263.583 -168.596 261.201 -170.414Z" fill="#FF7381"/>
<path d="M273.703 -187.519C271.321 -189.336 267.991 -188.896 266.265 -186.534C264.539 -184.172 265.07 -180.784 267.452 -178.966C269.834 -177.149 273.165 -177.589 274.891 -179.951C276.617 -182.313 276.085 -185.701 273.703 -187.519Z" fill="#FF7381"/>
<path d="M286.205 -204.623C283.823 -206.441 280.493 -206 278.766 -203.638C277.04 -201.277 277.572 -197.889 279.954 -196.071C282.336 -194.253 285.666 -194.694 287.392 -197.056C289.119 -199.417 288.587 -202.805 286.205 -204.623Z" fill="#FF7381"/>
<path d="M298.707 -221.728C296.325 -223.546 292.994 -223.105 291.268 -220.743C289.542 -218.381 290.074 -214.993 292.456 -213.175C294.838 -211.358 298.168 -211.799 299.894 -214.16C301.62 -216.522 301.089 -219.91 298.707 -221.728Z" fill="#FF7381"/>
<path d="M168.939 -80.9523C166.557 -82.7701 163.227 -82.3292 161.5 -79.9676C159.774 -77.6059 160.306 -74.2178 162.688 -72.4C165.07 -70.5822 168.4 -71.0231 170.127 -73.3847C171.853 -75.7464 171.321 -79.1345 168.939 -80.9523Z" fill="#FF7381"/>
<path d="M181.441 -98.0568C179.059 -99.8746 175.728 -99.4338 174.002 -97.0721C172.276 -94.7105 172.808 -91.3224 175.19 -89.5046C177.572 -87.6867 180.902 -88.1276 182.628 -90.4893C184.354 -92.8509 183.823 -96.239 181.441 -98.0568Z" fill="#FF7381"/>
<path d="M193.942 -115.161C191.56 -116.979 188.23 -116.538 186.504 -114.177C184.778 -111.815 185.309 -108.427 187.692 -106.609C190.074 -104.791 193.404 -105.232 195.13 -107.594C196.856 -109.956 196.324 -113.344 193.942 -115.161Z" fill="#FF7381"/>
<path d="M206.444 -132.266C204.062 -134.084 200.732 -133.643 199.006 -131.281C197.28 -128.92 197.811 -125.532 200.193 -123.714C202.575 -121.896 205.906 -122.337 207.632 -124.698C209.358 -127.06 208.826 -130.448 206.444 -132.266Z" fill="#FF7381"/>
<path d="M218.946 -149.371C216.564 -151.188 213.233 -150.747 211.507 -148.386C209.781 -146.024 210.313 -142.636 212.695 -140.818C215.077 -139 218.407 -139.441 220.133 -141.803C221.86 -144.165 221.328 -147.553 218.946 -149.371Z" fill="#FF7381"/>
<path d="M231.448 -166.475C229.066 -168.293 225.735 -167.852 224.009 -165.49C222.283 -163.129 222.815 -159.741 225.197 -157.923C227.579 -156.105 230.909 -156.546 232.635 -158.908C234.361 -161.269 233.83 -164.657 231.448 -166.475Z" fill="#FF7381"/>
<path d="M243.949 -183.58C241.567 -185.398 238.237 -184.957 236.511 -182.595C234.785 -180.233 235.316 -176.845 237.698 -175.027C240.08 -173.21 243.411 -173.651 245.137 -176.012C246.863 -178.374 246.331 -181.762 243.949 -183.58Z" fill="#FF7381"/>
<path d="M256.451 -200.684C254.069 -202.502 250.739 -202.061 249.013 -199.7C247.286 -197.338 247.818 -193.95 250.2 -192.132C252.582 -190.314 255.912 -190.755 257.639 -193.117C259.365 -195.478 258.833 -198.866 256.451 -200.684Z" fill="#FF7381"/>
<path d="M268.953 -217.789C266.571 -219.607 263.24 -219.166 261.514 -216.804C259.788 -214.443 260.32 -211.054 262.702 -209.237C265.084 -207.419 268.414 -207.86 270.14 -210.221C271.866 -212.583 271.335 -215.971 268.953 -217.789Z" fill="#FF7381"/>
<path d="M281.454 -234.893C279.072 -236.711 275.742 -236.27 274.016 -233.909C272.29 -231.547 272.822 -228.159 275.204 -226.341C277.586 -224.523 280.916 -224.964 282.642 -227.326C284.368 -229.688 283.837 -233.076 281.454 -234.893Z" fill="#FF7381"/>
<path d="M151.687 -94.118C149.305 -95.9358 145.975 -95.4949 144.248 -93.1332C142.522 -90.7716 143.054 -87.3835 145.436 -85.5657C147.818 -83.7479 151.148 -84.1888 152.874 -86.5504C154.601 -88.9121 154.069 -92.3002 151.687 -94.118Z" fill="#FF7381"/>
<path d="M164.189 -111.223C161.807 -113.04 158.476 -112.599 156.75 -110.238C155.024 -107.876 155.556 -104.488 157.938 -102.67C160.32 -100.852 163.65 -101.293 165.376 -103.655C167.102 -106.017 166.571 -109.405 164.189 -111.223Z" fill="#FF7381"/>
<path d="M176.69 -128.327C174.308 -130.145 170.978 -129.704 169.252 -127.342C167.526 -124.981 168.057 -121.593 170.439 -119.775C172.821 -117.957 176.152 -118.398 177.878 -120.76C179.604 -123.121 179.072 -126.509 176.69 -128.327Z" fill="#FF7381"/>
<path d="M189.192 -145.432C186.81 -147.25 183.48 -146.809 181.754 -144.447C180.027 -142.085 180.559 -138.697 182.941 -136.879C185.323 -135.062 188.653 -135.502 190.38 -137.864C192.106 -140.226 191.574 -143.614 189.192 -145.432Z" fill="#FF7381"/>
<path d="M201.694 -162.536C199.312 -164.354 195.981 -163.913 194.255 -161.552C192.529 -159.19 193.061 -155.802 195.443 -153.984C197.825 -152.166 201.155 -152.607 202.881 -154.969C204.607 -157.33 204.076 -160.718 201.694 -162.536Z" fill="#FF7381"/>
<path d="M214.195 -179.641C211.813 -181.459 208.483 -181.018 206.757 -178.656C205.031 -176.294 205.563 -172.906 207.945 -171.089C210.327 -169.271 213.657 -169.712 215.383 -172.073C217.109 -174.435 216.577 -177.823 214.195 -179.641Z" fill="#FF7381"/>
<path d="M226.697 -196.745C224.315 -198.563 220.985 -198.122 219.259 -195.761C217.533 -193.399 218.064 -190.011 220.446 -188.193C222.828 -186.375 226.159 -186.816 227.885 -189.178C229.611 -191.54 229.079 -194.928 226.697 -196.745Z" fill="#FF7381"/>
<path d="M239.199 -213.85C236.817 -215.668 233.487 -215.227 231.76 -212.865C230.034 -210.504 230.566 -207.116 232.948 -205.298C235.33 -203.48 238.66 -203.921 240.386 -206.282C242.113 -208.644 241.581 -212.032 239.199 -213.85Z" fill="#FF7381"/>
<path d="M251.701 -230.955C249.319 -232.772 245.988 -232.331 244.262 -229.97C242.536 -227.608 243.068 -224.22 245.45 -222.402C247.832 -220.584 251.162 -221.025 252.888 -223.387C254.614 -225.749 254.083 -229.137 251.701 -230.955Z" fill="#FF7381"/>
<path d="M264.202 -248.059C261.82 -249.877 258.49 -249.436 256.764 -247.074C255.038 -244.713 255.569 -241.325 257.951 -239.507C260.333 -237.689 263.664 -238.13 265.39 -240.492C267.116 -242.853 266.584 -246.241 264.202 -248.059Z" fill="#FF7381"/>
<path d="M134.435 -107.284C132.053 -109.101 128.722 -108.661 126.996 -106.299C125.27 -103.937 125.802 -100.549 128.184 -98.7314C130.566 -96.9136 133.896 -97.3544 135.622 -99.7161C137.348 -102.078 136.817 -105.466 134.435 -107.284Z" fill="#FF7381"/>
<path d="M146.936 -124.388C144.554 -126.206 141.224 -125.765 139.498 -123.404C137.772 -121.042 138.304 -117.654 140.686 -115.836C143.068 -114.018 146.398 -114.459 148.124 -116.821C149.85 -119.182 149.318 -122.57 146.936 -124.388Z" fill="#FF7381"/>
<path d="M159.438 -141.493C157.056 -143.311 153.726 -142.87 152 -140.508C150.274 -138.146 150.805 -134.758 153.187 -132.941C155.569 -131.123 158.9 -131.564 160.626 -133.925C162.352 -136.287 161.82 -139.675 159.438 -141.493Z" fill="#FF7381"/>
<path d="M171.94 -158.597C169.558 -160.415 166.228 -159.974 164.501 -157.613C162.775 -155.251 163.307 -151.863 165.689 -150.045C168.071 -148.227 171.401 -148.668 173.127 -151.03C174.854 -153.391 174.322 -156.78 171.94 -158.597Z" fill="#FF7381"/>
<path d="M184.442 -175.702C182.06 -177.52 178.729 -177.079 177.003 -174.717C175.277 -172.356 175.809 -168.967 178.191 -167.15C180.573 -165.332 183.903 -165.773 185.629 -168.134C187.355 -170.496 186.824 -173.884 184.442 -175.702Z" fill="#FF7381"/>
<path d="M196.943 -192.807C194.561 -194.624 191.231 -194.183 189.505 -191.822C187.779 -189.46 188.31 -186.072 190.692 -184.254C193.074 -182.436 196.405 -182.877 198.131 -185.239C199.857 -187.601 199.325 -190.989 196.943 -192.807Z" fill="#FF7381"/>
<path d="M209.445 -209.911C207.063 -211.729 203.733 -211.288 202.007 -208.926C200.28 -206.565 200.812 -203.177 203.194 -201.359C205.576 -199.541 208.907 -199.982 210.633 -202.344C212.359 -204.705 211.827 -208.093 209.445 -209.911Z" fill="#FF7381"/>
<path d="M221.947 -227.016C219.565 -228.833 216.234 -228.393 214.508 -226.031C212.782 -223.669 213.314 -220.281 215.696 -218.463C218.078 -216.646 221.408 -217.086 223.134 -219.448C224.861 -221.81 224.329 -225.198 221.947 -227.016Z" fill="#FF7381"/>
<path d="M234.448 -244.12C232.066 -245.938 228.736 -245.497 227.01 -243.136C225.284 -240.774 225.816 -237.386 228.198 -235.568C230.58 -233.75 233.91 -234.191 235.636 -236.553C237.362 -238.914 236.83 -242.302 234.448 -244.12Z" fill="#FF7381"/>
<path d="M246.95 -261.225C244.568 -263.043 241.238 -262.602 239.512 -260.24C237.786 -257.878 238.317 -254.49 240.699 -252.673C243.081 -250.855 246.412 -251.296 248.138 -253.657C249.864 -256.019 249.332 -259.407 246.95 -261.225Z" fill="#FF7381"/>
<path d="M117.183 -120.449C114.801 -122.267 111.47 -121.826 109.744 -119.465C108.018 -117.103 108.55 -113.715 110.932 -111.897C113.314 -110.079 116.644 -110.52 118.37 -112.882C120.096 -115.243 119.565 -118.632 117.183 -120.449Z" fill="#FF7381"/>
<path d="M129.684 -137.554C127.302 -139.372 123.972 -138.931 122.246 -136.569C120.52 -134.208 121.051 -130.819 123.433 -129.002C125.815 -127.184 129.146 -127.625 130.872 -129.986C132.598 -132.348 132.066 -135.736 129.684 -137.554Z" fill="#FF7381"/>
<path d="M142.186 -154.658C139.804 -156.476 136.474 -156.035 134.748 -153.674C133.021 -151.312 133.553 -147.924 135.935 -146.106C138.317 -144.288 141.648 -144.729 143.374 -147.091C145.1 -149.453 144.568 -152.841 142.186 -154.658Z" fill="#FF7381"/>
<path d="M154.688 -171.763C152.306 -173.581 148.975 -173.14 147.249 -170.778C145.523 -168.417 146.055 -165.029 148.437 -163.211C150.819 -161.393 154.149 -161.834 155.875 -164.196C157.601 -166.557 157.07 -169.945 154.688 -171.763Z" fill="#FF7381"/>
<path d="M167.19 -188.868C164.807 -190.685 161.477 -190.245 159.751 -187.883C158.025 -185.521 158.557 -182.133 160.939 -180.315C163.321 -178.498 166.651 -178.938 168.377 -181.3C170.103 -183.662 169.572 -187.05 167.19 -188.868Z" fill="#FF7381"/>
<path d="M179.691 -205.972C177.309 -207.79 173.979 -207.349 172.253 -204.987C170.527 -202.626 171.058 -199.238 173.44 -197.42C175.822 -195.602 179.153 -196.043 180.879 -198.405C182.605 -200.766 182.073 -204.154 179.691 -205.972Z" fill="#FF7381"/>
<path d="M192.193 -223.077C189.811 -224.895 186.481 -224.454 184.754 -222.092C183.028 -219.73 183.56 -216.342 185.942 -214.524C188.324 -212.707 191.654 -213.148 193.381 -215.509C195.107 -217.871 194.575 -221.259 192.193 -223.077Z" fill="#FF7381"/>
<path d="M204.695 -240.181C202.313 -241.999 198.982 -241.558 197.256 -239.197C195.53 -236.835 196.062 -233.447 198.444 -231.629C200.826 -229.811 204.156 -230.252 205.882 -232.614C207.608 -234.975 207.077 -238.364 204.695 -240.181Z" fill="#FF7381"/>
<path d="M217.196 -257.286C214.814 -259.104 211.484 -258.663 209.758 -256.301C208.032 -253.94 208.564 -250.551 210.946 -248.734C213.328 -246.916 216.658 -247.357 218.384 -249.718C220.11 -252.08 219.578 -255.468 217.196 -257.286Z" fill="#FF7381"/>
<path d="M229.698 -274.391C227.316 -276.208 223.986 -275.767 222.26 -273.406C220.534 -271.044 221.065 -267.656 223.447 -265.838C225.829 -264.02 229.16 -264.461 230.886 -266.823C232.612 -269.185 232.08 -272.573 229.698 -274.391Z" fill="#FF7381"/>
<path d="M99.9305 -133.615C97.5484 -135.433 94.2182 -134.992 92.492 -132.63C90.7659 -130.269 91.2976 -126.881 93.6796 -125.063C96.0616 -123.245 99.3919 -123.686 101.118 -126.047C102.844 -128.409 102.312 -131.797 99.9305 -133.615Z" fill="#FF7381"/>
<path d="M112.432 -150.72C110.05 -152.537 106.72 -152.097 104.994 -149.735C103.268 -147.373 103.799 -143.985 106.181 -142.167C108.563 -140.35 111.894 -140.79 113.62 -143.152C115.346 -145.514 114.814 -148.902 112.432 -150.72Z" fill="#FF7381"/>
<path d="M124.934 -167.824C122.552 -169.642 119.222 -169.201 117.495 -166.839C115.769 -164.478 116.301 -161.09 118.683 -159.272C121.065 -157.454 124.395 -157.895 126.122 -160.257C127.848 -162.618 127.316 -166.006 124.934 -167.824Z" fill="#FF7381"/>
<path d="M137.436 -184.929C135.054 -186.747 131.723 -186.306 129.997 -183.944C128.271 -181.582 128.803 -178.194 131.185 -176.376C133.567 -174.559 136.897 -175 138.623 -177.361C140.349 -179.723 139.818 -183.111 137.436 -184.929Z" fill="#FF7381"/>
<path d="M149.937 -202.033C147.555 -203.851 144.225 -203.41 142.499 -201.049C140.773 -198.687 141.304 -195.299 143.686 -193.481C146.069 -191.663 149.399 -192.104 151.125 -194.466C152.851 -196.827 152.319 -200.216 149.937 -202.033Z" fill="#FF7381"/>
<path d="M162.439 -219.138C160.057 -220.956 156.727 -220.515 155.001 -218.153C153.275 -215.792 153.806 -212.403 156.188 -210.586C158.57 -208.768 161.901 -209.209 163.627 -211.57C165.353 -213.932 164.821 -217.32 162.439 -219.138Z" fill="#FF7381"/>
<path d="M174.941 -236.242C172.559 -238.06 169.229 -237.619 167.502 -235.258C165.776 -232.896 166.308 -229.508 168.69 -227.69C171.072 -225.872 174.402 -226.313 176.128 -228.675C177.855 -231.037 177.323 -234.425 174.941 -236.242Z" fill="#FF7381"/>
<path d="M187.443 -253.347C185.061 -255.165 181.73 -254.724 180.004 -252.362C178.278 -250.001 178.81 -246.613 181.192 -244.795C183.574 -242.977 186.904 -243.418 188.63 -245.779C190.356 -248.141 189.825 -251.529 187.443 -253.347Z" fill="#FF7381"/>
<path d="M199.944 -270.452C197.562 -272.269 194.232 -271.829 192.506 -269.467C190.78 -267.105 191.311 -263.717 193.693 -261.899C196.075 -260.082 199.406 -260.522 201.132 -262.884C202.858 -265.246 202.326 -268.634 199.944 -270.452Z" fill="#FF7381"/>
<path d="M212.446 -287.556C210.064 -289.374 206.734 -288.933 205.008 -286.571C203.281 -284.21 203.813 -280.822 206.195 -279.004C208.577 -277.186 211.907 -277.627 213.634 -279.989C215.36 -282.35 214.828 -285.738 212.446 -287.556Z" fill="#FF7381"/>
</g>
</svg>
