<svg width="198" height="317" viewBox="0 0 198 317" fill="none" xmlns="http://www.w3.org/2000/svg">
<path d="M99 102.5C95 119.3 92 155.5 91 171.5H115.5C116 161.667 117.1 138.7 117.5 125.5C117.9 112.3 110 46 106 14.5C105.333 36.8333 103 85.7 99 102.5Z" fill="#678D58" stroke="#678D58"/>
<path d="M119 35C119 36.4422 116.333 78.1666 115.5 98.9999L109 170H129.5C133.5 133 121 40 120.5 36.5C120 33 119 33 119 35Z" fill="#1E7158"/>
<path d="M142.5 29C141.3 31 135.5 41.9999 132.5 48.9999C119.428 79.4999 122.167 138.833 125.5 170H138C139.5 150.5 140 130.5 134 97C128 63.5 144 26.5 142.5 29Z" fill="#A6C48A" stroke="#A6C48A"/>
<path d="M142 103C139.2 104.6 132.833 115.333 130 120.5C125.6 130.1 122.5 158.167 121.5 171H135.5C134 107 145.5 101 142 103Z" fill="#678D58" stroke="#678D58"/>
<path d="M61 88.5C73.4 108.9 70.8333 151.667 68 170.5L84 171C84.8 126.6 69.3333 96.8333 61 88.5Z" fill="#A6C48A" stroke="#A6C48A"/>
<path d="M60 55C74.4 77.4 76.6667 105.667 76 117V171H95.5C95.5 163.333 94.8 142.4 92 120C89.2 97.6 69.5 67.3333 60 55Z" fill="#678D58" stroke="#678D58"/>
<path d="M82.5 73.5C70.3268 48.1391 62.1667 26.6667 61 20C65 28.5 73.2571 43.4911 89 66.5C102 85.5 102 149 101 178.5H83.5C88.8333 152.667 94.5 98.5 82.5 73.5Z" fill="#1E7158" stroke="#1E7158"/>
<path d="M88 100.5C84 120.1 80.6667 155.667 79.5 171H99C104.6 127 95.3333 63.6667 90 37.5C91 50.3333 92 80.9 88 100.5Z" fill="#A6C48A" stroke="#A6C48A"/>
<rect x="52" y="169" width="97" height="99" rx="4" fill="#F6E7CB"/>
<rect x="44" y="197" width="8" height="91" rx="2" fill="#F2F2F2"/>
<rect x="97" y="197" width="8" height="91" rx="2" fill="#F2F2F2"/>
<rect x="149" y="197" width="8" height="91" rx="2" fill="#F2F2F2"/>
</svg>
