<svg width="119" height="127" viewBox="0 0 119 127" fill="none" xmlns="http://www.w3.org/2000/svg">
<path d="M93.5 27C76.7 37.4 66.8333 59.3333 64 69L73.5 68.5C74.7 54.5 86.6667 35.6667 93.5 27Z" fill="#678D58" stroke="#678D58"/>
<path d="M72 22C65.6 34 66.3334 57.6667 67.5 68C66.1667 75.5 62.8001 86 60.0001 68C57.2001 50 66.8334 29.8333 72 22Z" fill="#A6C48A" stroke="#A6C48A"/>
<path d="M63 68C60.2 43.6 41.1667 27.8333 32 23C41.6 31 50 56.3333 53 68H63Z" fill="#1E7158" stroke="#1E7158"/>
<path d="M58 68C51.2 55.6 32.5 43.1667 24 38.5C41.2 52.5 50.1667 65.6667 52.5 70.5C57.1667 74.8333 64.8 80.4 58 68Z" fill="#A6C48A" stroke="#A6C48A"/>
<path d="M60.9999 106.5C40.1999 106.9 36.3332 81.3333 36.9999 68.5H83.5C84.6666 81 81.7999 106.1 60.9999 106.5Z" fill="#DD9787"/>
</svg>
