<svg width="32" height="32" viewBox="0 0 32 32" fill="none" xmlns="http://www.w3.org/2000/svg">
<path d="M16 2.66667C8.64002 2.66667 2.66669 8.64 2.66669 16C2.66669 23.36 8.64002 29.3333 16 29.3333C23.36 29.3333 29.3334 23.36 29.3334 16C29.3334 8.64 23.36 2.66667 16 2.66667ZM16 26.6667C10.12 26.6667 5.33335 21.88 5.33335 16C5.33335 10.12 10.12 5.33333 16 5.33333C21.88 5.33333 26.6667 10.12 26.6667 16C26.6667 21.88 21.88 26.6667 16 26.6667ZM8.66669 23.3333L18.68 18.68L23.3334 8.66667L13.32 13.32L8.66669 23.3333ZM16 14.5333C16.8134 14.5333 17.4667 15.1867 17.4667 16C17.4667 16.8133 16.8134 17.4667 16 17.4667C15.1867 17.4667 14.5334 16.8133 14.5334 16C14.5334 15.1867 15.1867 14.5333 16 14.5333Z" fill="#0C4A3A"/>
</svg>
