<svg width="32" height="32" viewBox="0 0 32 32" fill="none" xmlns="http://www.w3.org/2000/svg">
<path d="M16 14.5333C15.1867 14.5333 14.5333 15.1867 14.5333 16C14.5333 16.8133 15.1867 17.4667 16 17.4667C16.8133 17.4667 17.4667 16.8133 17.4667 16C17.4667 15.1867 16.8133 14.5333 16 14.5333ZM16 2.66666C8.63999 2.66666 2.66666 8.64 2.66666 16C2.66666 23.36 8.63999 29.3333 16 29.3333C23.36 29.3333 29.3333 23.36 29.3333 16C29.3333 8.64 23.36 2.66666 16 2.66666ZM18.92 18.92L7.99999 24L13.08 13.08L24 8L18.92 18.92Z" fill="#0C4A3A"/>
</svg>
