<svg width="32" height="32" viewBox="0 0 32 32" fill="none" xmlns="http://www.w3.org/2000/svg">
<path d="M14.3287 2.75534C14.9369 2.26746 15.7057 1.99999 16.5 1.99999C17.2943 1.99999 18.0631 2.26746 18.6713 2.75534L28.7963 10.8842C29.1731 11.1865 29.4762 11.564 29.6841 11.99C29.8921 12.416 29.9999 12.8803 30 13.3503V26.8518C30 27.4215 29.7629 27.9679 29.341 28.3708C28.919 28.7737 28.3467 29 27.75 29H21.5625C20.9658 29 20.3935 28.7737 19.9715 28.3708C19.5496 27.9679 19.3125 27.4215 19.3125 26.8518V19.3331H13.6875V26.8518C13.6875 27.4215 13.4504 27.9679 13.0285 28.3708C12.6065 28.7737 12.0342 29 11.4375 29H5.25C4.65326 29 4.08097 28.7737 3.65901 28.3708C3.23705 27.9679 3 27.4215 3 26.8518V13.3492C3.00012 12.8792 3.10794 12.4149 3.31588 11.9889C3.52383 11.5629 3.82687 11.1855 4.20375 10.8831L14.3287 2.75427V2.75534Z" fill="#0C4A3A"/>
</svg>
