<svg width="32" height="32" viewBox="0 0 32 32" fill="none" xmlns="http://www.w3.org/2000/svg">
<path d="M13.3287 2.75535C13.9369 2.26747 14.7057 2 15.5 2C16.2943 2 17.0631 2.26747 17.6713 2.75535L27.7962 10.8842C28.1731 11.1865 28.4762 11.564 28.6841 11.99C28.8921 12.416 28.9999 12.8803 29 13.3503V26.8518C29 27.4215 28.7629 27.9679 28.341 28.3708C27.919 28.7737 27.3467 29 26.75 29H20.5625C19.9658 29 19.3935 28.7737 18.9715 28.3708C18.5496 27.9679 18.3125 27.4215 18.3125 26.8518V19.3331H12.6875V26.8518C12.6875 27.4215 12.4504 27.9679 12.0285 28.3708C11.6065 28.7737 11.0342 29 10.4375 29H4.25C3.65326 29 3.08097 28.7737 2.65901 28.3708C2.23705 27.9679 2 27.4215 2 26.8518V13.3492C2.00012 12.8792 2.10794 12.4149 2.31588 11.9889C2.52383 11.5629 2.82687 11.1855 3.20375 10.8831L13.3287 2.75428V2.75535ZM16.2245 4.39873C16.0217 4.23573 15.7651 4.14635 15.5 4.14635C15.2349 4.14635 14.9783 4.23573 14.7755 4.39873L4.6505 12.5297C4.52535 12.6303 4.42468 12.7557 4.35551 12.8973C4.28634 13.0388 4.25033 13.193 4.25 13.3492V26.8507H10.4375V19.332C10.4375 18.7623 10.6746 18.2159 11.0965 17.813C11.5185 17.4101 12.0908 17.1838 12.6875 17.1838H18.3125C18.9092 17.1838 19.4815 17.4101 19.9035 17.813C20.3254 18.2159 20.5625 18.7623 20.5625 19.332V26.8507H26.75V13.3492C26.75 13.1927 26.7141 13.038 26.645 12.8961C26.5758 12.7542 26.4749 12.6284 26.3495 12.5275L16.2245 4.39873Z" fill="#0C4A3A"/>
</svg>
