<svg width="32" height="32" viewBox="0 0 32 32" fill="none" xmlns="http://www.w3.org/2000/svg">
<path d="M15.952 9.29333C15.952 9.29333 11.852 9.70133 9.70535 7.91333C7.55868 6.124 8.04801 2.70666 8.04801 2.70666C8.04801 2.70666 12.148 2.29866 14.296 4.08666C16.4427 5.876 15.952 9.29333 15.952 9.29333V9.29333Z" stroke="#0C4A3A" stroke-width="2" stroke-linecap="round" stroke-linejoin="round"/>
<path d="M16.048 9.29333C16.048 9.29333 20.148 9.70133 22.2947 7.91333C24.4413 6.124 23.952 2.70666 23.952 2.70666C23.952 2.70666 19.852 2.29866 17.7053 4.08666C15.5587 5.876 16.048 9.29333 16.048 9.29333V9.29333Z" stroke="#0C4A3A" stroke-width="2" stroke-linecap="round" stroke-linejoin="round"/>
<path d="M5.33334 14.6667C5.33334 14.313 5.47382 13.9739 5.72387 13.7239C5.97392 13.4738 6.31305 13.3333 6.66668 13.3333H25.3333C25.687 13.3333 26.0261 13.4738 26.2762 13.7239C26.5262 13.9739 26.6667 14.313 26.6667 14.6667V17.3333C26.6667 17.687 26.5262 18.0261 26.2762 18.2761C26.0261 18.5262 25.687 18.6667 25.3333 18.6667H6.66668C6.31305 18.6667 5.97392 18.5262 5.72387 18.2761C5.47382 18.0261 5.33334 17.687 5.33334 17.3333V14.6667Z" stroke="#0C4A3A" stroke-width="2" stroke-linecap="round" stroke-linejoin="round"/>
<path d="M6.66669 18.6667H25.3334L22.6667 29.3333H9.33335L6.66669 18.6667Z" stroke="#0C4A3A" stroke-width="2" stroke-linecap="round" stroke-linejoin="round"/>
</svg>
